<?xml version="1.0" encoding="UTF-8"?>
<svg id="Livello_1" data-name="Livello 1" xmlns="http://www.w3.org/2000/svg" viewBox="0 0 100 100" xml:space="preserve" width="100px" height="100px">
  <path d="m31.45,49.98l2.75-22.02c.19-1.55,1.51-2.7,3.07-2.7h16.29c1.45,0,2.62,1.17,2.62,2.62,0,.31-.06.63-.16.92l-4.47,11.92h13.46c1.95,0,3.55,1.58,3.55,3.55,0,.71-.21,1.41-.62,2l-18.57,27.14c-.57.83-1.51,1.32-2.5,1.32h-.28c-1.52,0-2.75-1.24-2.75-2.75,0-.22.03-.44.09-.67l4.54-18.23h-13.91c-1.71,0-3.09-1.38-3.09-3.09Z"/>
</svg>