<svg xmlns="http://www.w3.org/2000/svg" xmlns:xlink="http://www.w3.org/1999/xlink" width="220" zoomAndPan="magnify" viewBox="0 0 165 82.499998" height="110" preserveAspectRatio="xMidYMid meet" version="1.0"><defs><clipPath id="c34688a75d"><path d="M 0.496094 0 L 164.503906 0 L 164.503906 82.003906 L 0.496094 82.003906 Z M 0.496094 0 " clip-rule="nonzero"/></clipPath><clipPath id="f4916cb8ec"><path d="M 9.308594 16.273438 L 24 16.273438 L 24 52 L 9.308594 52 Z M 9.308594 16.273438 " clip-rule="nonzero"/></clipPath><clipPath id="8f028db939"><path d="M 61 50 L 155.398438 50 L 155.398438 60 L 61 60 Z M 61 50 " clip-rule="nonzero"/></clipPath><clipPath id="e7e8a292fe"><path d="M 138 29 L 155.398438 29 L 155.398438 47 L 138 47 Z M 138 29 " clip-rule="nonzero"/></clipPath></defs><g clip-path="url(#c34688a75d)"><path fill="#ffffff" d="M 0.496094 0 L 164.503906 0 L 164.503906 82.003906 L 0.496094 82.003906 Z M 0.496094 0 " fill-opacity="1" fill-rule="nonzero"/></g><path fill="#6ecdcf" d="M 11.378906 59.527344 L 18.328125 64.5625 C 18.976562 65.03125 19.824219 65.117188 20.554688 64.792969 L 35.847656 58.003906 C 36.632812 57.65625 36.742188 56.589844 36.046875 56.085938 L 29.097656 51.050781 C 28.449219 50.582031 27.601562 50.496094 26.875 50.820312 L 11.582031 57.609375 C 10.792969 57.957031 10.683594 59.019531 11.378906 59.527344 Z M 11.378906 59.527344 " fill-opacity="1" fill-rule="evenodd"/><g clip-path="url(#f4916cb8ec)"><path fill="#f25b6c" d="M 10.886719 51.160156 L 18.734375 47.675781 C 19.460938 47.355469 19.964844 46.664062 20.046875 45.875 L 23.03125 17.503906 C 23.125 16.652344 22.25 16.019531 21.460938 16.371094 L 13.621094 19.855469 C 12.894531 20.175781 12.386719 20.867188 12.308594 21.65625 L 9.316406 50.019531 C 9.222656 50.875 10.097656 51.507812 10.886719 51.152344 Z M 10.886719 51.160156 " fill-opacity="1" fill-rule="evenodd"/></g><path fill="#ffcb3d" d="M 43.46875 51.757812 L 44.367188 43.238281 C 44.453125 42.445312 44.101562 41.667969 43.457031 41.203125 L 29.519531 31.109375 C 28.824219 30.601562 27.839844 31.039062 27.746094 31.894531 L 26.851562 40.410156 C 26.765625 41.203125 27.113281 41.984375 27.757812 42.445312 L 41.695312 52.542969 C 42.394531 53.046875 43.375 52.609375 43.46875 51.757812 Z M 43.46875 51.757812 " fill-opacity="1" fill-rule="evenodd"/><g clip-path="url(#8f028db939)"><path fill="#364459" d="M 63.953125 59.410156 C 63.355469 59.410156 62.851562 59.296875 62.457031 59.070312 C 62.054688 58.84375 61.703125 58.539062 61.417969 58.15625 L 62.125 57.585938 C 62.375 57.902344 62.652344 58.136719 62.957031 58.308594 C 63.261719 58.480469 63.621094 58.5625 64.027344 58.5625 C 64.429688 58.5625 64.777344 58.472656 65.015625 58.289062 C 65.253906 58.109375 65.371094 57.851562 65.371094 57.523438 C 65.371094 57.273438 65.289062 57.058594 65.125 56.882812 C 64.960938 56.707031 64.671875 56.585938 64.246094 56.519531 L 63.738281 56.445312 C 63.441406 56.402344 63.164062 56.34375 62.921875 56.25 C 62.671875 56.164062 62.457031 56.050781 62.265625 55.902344 C 62.078125 55.757812 61.9375 55.582031 61.832031 55.363281 C 61.730469 55.148438 61.679688 54.890625 61.679688 54.59375 C 61.679688 54.277344 61.734375 54.003906 61.859375 53.765625 C 61.972656 53.527344 62.132812 53.332031 62.332031 53.175781 C 62.535156 53.015625 62.78125 52.902344 63.0625 52.820312 C 63.34375 52.742188 63.648438 52.707031 63.96875 52.707031 C 64.496094 52.707031 64.929688 52.796875 65.285156 52.980469 C 65.636719 53.164062 65.945312 53.414062 66.210938 53.734375 L 65.550781 54.332031 C 65.410156 54.132812 65.203125 53.953125 64.929688 53.789062 C 64.65625 53.625 64.3125 53.546875 63.898438 53.546875 C 63.480469 53.546875 63.171875 53.636719 62.957031 53.816406 C 62.742188 53.992188 62.640625 54.234375 62.640625 54.539062 C 62.640625 54.84375 62.742188 55.082031 62.957031 55.222656 C 63.171875 55.363281 63.476562 55.464844 63.871094 55.53125 L 64.367188 55.605469 C 65.082031 55.714844 65.589844 55.914062 65.882812 56.21875 C 66.179688 56.523438 66.328125 56.921875 66.328125 57.40625 C 66.328125 58.027344 66.113281 58.515625 65.691406 58.875 C 65.273438 59.226562 64.691406 59.410156 63.953125 59.410156 Z M 70.503906 59.410156 C 70.070312 59.410156 69.679688 59.332031 69.328125 59.171875 C 68.972656 59.015625 68.667969 58.789062 68.410156 58.496094 C 68.15625 58.207031 67.960938 57.851562 67.816406 57.445312 C 67.679688 57.035156 67.605469 56.574219 67.605469 56.0625 C 67.605469 55.550781 67.679688 55.097656 67.816406 54.683594 C 67.960938 54.269531 68.15625 53.917969 68.410156 53.625 C 68.667969 53.332031 68.964844 53.109375 69.328125 52.949219 C 69.679688 52.792969 70.078125 52.710938 70.503906 52.710938 C 70.933594 52.710938 71.332031 52.792969 71.683594 52.949219 C 72.039062 53.109375 72.34375 53.332031 72.601562 53.625 C 72.855469 53.917969 73.058594 54.269531 73.199219 54.683594 C 73.339844 55.097656 73.414062 55.554688 73.414062 56.0625 C 73.414062 56.566406 73.339844 57.035156 73.199219 57.445312 C 73.058594 57.851562 72.855469 58.207031 72.601562 58.496094 C 72.34375 58.789062 72.039062 59.015625 71.683594 59.171875 C 71.332031 59.332031 70.9375 59.410156 70.503906 59.410156 Z M 70.503906 58.527344 C 71.042969 58.527344 71.484375 58.363281 71.824219 58.027344 C 72.167969 57.699219 72.332031 57.195312 72.332031 56.511719 L 72.332031 55.59375 C 72.332031 54.917969 72.160156 54.410156 71.824219 54.078125 C 71.484375 53.746094 71.042969 53.578125 70.503906 53.578125 C 69.96875 53.578125 69.527344 53.742188 69.1875 54.078125 C 68.84375 54.40625 68.679688 54.910156 68.679688 55.59375 L 68.679688 56.511719 C 68.679688 57.1875 68.851562 57.695312 69.1875 58.027344 C 69.527344 58.355469 69.96875 58.527344 70.503906 58.527344 Z M 75.390625 53.722656 L 74.347656 53.722656 L 74.347656 52.851562 L 75.390625 52.851562 L 75.390625 51.5625 C 75.390625 51.117188 75.507812 50.75 75.738281 50.484375 C 75.972656 50.210938 76.328125 50.074219 76.796875 50.074219 L 77.765625 50.074219 L 77.765625 50.945312 L 76.386719 50.945312 L 76.386719 52.859375 L 77.765625 52.859375 L 77.765625 53.730469 L 76.386719 53.730469 L 76.386719 59.265625 L 75.390625 59.265625 Z M 80.492188 59.257812 C 80.144531 59.257812 79.878906 59.160156 79.703125 58.964844 C 79.527344 58.769531 79.433594 58.515625 79.433594 58.207031 L 79.433594 53.722656 L 78.378906 53.722656 L 78.378906 52.851562 L 78.976562 52.851562 C 79.191406 52.851562 79.335938 52.808594 79.417969 52.726562 C 79.496094 52.640625 79.53125 52.488281 79.53125 52.273438 L 79.53125 51.082031 L 80.429688 51.082031 L 80.429688 52.859375 L 81.835938 52.859375 L 81.835938 53.730469 L 80.429688 53.730469 L 80.429688 58.398438 L 81.738281 58.398438 L 81.738281 59.269531 L 80.492188 59.269531 Z M 82.769531 52.851562 L 83.742188 52.851562 L 84.425781 55.625 L 85.109375 58.429688 L 85.132812 58.429688 L 85.914062 55.625 L 86.722656 52.851562 L 87.605469 52.851562 L 88.4375 55.625 L 89.230469 58.429688 L 89.253906 58.429688 L 89.914062 55.625 L 90.609375 52.851562 L 91.546875 52.851562 L 89.839844 59.257812 L 88.609375 59.257812 L 87.710938 56.175781 L 87.148438 54.230469 L 87.125 54.230469 L 86.574219 56.175781 L 85.675781 59.257812 L 84.46875 59.257812 L 82.75 52.851562 Z M 97.660156 59.257812 C 97.285156 59.257812 97.019531 59.160156 96.859375 58.960938 C 96.699219 58.757812 96.597656 58.515625 96.554688 58.21875 L 96.492188 58.21875 C 96.351562 58.613281 96.121094 58.910156 95.796875 59.113281 C 95.472656 59.3125 95.089844 59.410156 94.640625 59.410156 C 93.964844 59.410156 93.433594 59.234375 93.054688 58.886719 C 92.675781 58.539062 92.488281 58.066406 92.488281 57.472656 C 92.488281 56.882812 92.707031 56.410156 93.152344 56.085938 C 93.597656 55.761719 94.289062 55.597656 95.222656 55.597656 L 96.492188 55.597656 L 96.492188 54.964844 C 96.492188 54.507812 96.371094 54.160156 96.121094 53.925781 C 95.871094 53.6875 95.492188 53.566406 94.976562 53.566406 C 94.585938 53.566406 94.261719 53.648438 94 53.828125 C 93.738281 54.003906 93.523438 54.234375 93.347656 54.519531 L 92.75 53.960938 C 92.925781 53.613281 93.199219 53.316406 93.578125 53.070312 C 93.957031 52.828125 94.441406 52.707031 95.019531 52.707031 C 95.800781 52.707031 96.40625 52.894531 96.835938 53.277344 C 97.269531 53.664062 97.480469 54.191406 97.480469 54.867188 L 97.480469 58.394531 L 98.214844 58.394531 L 98.214844 59.265625 L 97.652344 59.265625 Z M 94.800781 58.5625 C 95.050781 58.5625 95.277344 58.535156 95.484375 58.480469 C 95.691406 58.417969 95.871094 58.339844 96.023438 58.230469 C 96.167969 58.121094 96.285156 58 96.371094 57.859375 C 96.457031 57.71875 96.492188 57.566406 96.492188 57.402344 L 96.492188 56.347656 L 95.171875 56.347656 C 94.601562 56.347656 94.183594 56.433594 93.921875 56.597656 C 93.660156 56.761719 93.53125 57.003906 93.53125 57.316406 L 93.53125 57.578125 C 93.53125 57.894531 93.648438 58.136719 93.871094 58.308594 C 94.097656 58.484375 94.410156 58.570312 94.800781 58.570312 Z M 99.636719 59.257812 L 99.636719 52.851562 L 100.632812 52.851562 L 100.632812 54.035156 L 100.695312 54.035156 C 100.8125 53.730469 101.019531 53.457031 101.316406 53.210938 C 101.617188 52.972656 102.027344 52.851562 102.550781 52.851562 L 102.9375 52.851562 L 102.9375 53.84375 L 102.351562 53.84375 C 101.8125 53.84375 101.390625 53.949219 101.085938 54.148438 C 100.78125 54.351562 100.632812 54.605469 100.632812 54.910156 L 100.632812 59.257812 Z M 106.617188 59.40625 C 106.179688 59.40625 105.78125 59.324219 105.433594 59.167969 C 105.085938 59.007812 104.78125 58.785156 104.523438 58.492188 C 104.273438 58.199219 104.078125 57.847656 103.9375 57.4375 C 103.796875 57.03125 103.730469 56.566406 103.730469 56.054688 C 103.730469 55.542969 103.796875 55.09375 103.9375 54.679688 C 104.070312 54.265625 104.265625 53.914062 104.523438 53.621094 C 104.773438 53.328125 105.078125 53.101562 105.433594 52.945312 C 105.789062 52.785156 106.179688 52.707031 106.617188 52.707031 C 107.058594 52.707031 107.4375 52.785156 107.773438 52.945312 C 108.113281 53.101562 108.402344 53.320312 108.648438 53.59375 C 108.882812 53.875 109.074219 54.203125 109.203125 54.582031 C 109.332031 54.964844 109.398438 55.378906 109.398438 55.835938 L 109.398438 56.304688 L 104.78125 56.304688 L 104.78125 56.605469 C 104.78125 56.878906 104.824219 57.132812 104.910156 57.363281 C 104.996094 57.601562 105.121094 57.804688 105.28125 57.980469 C 105.441406 58.15625 105.640625 58.289062 105.878906 58.386719 C 106.117188 58.484375 106.378906 58.535156 106.679688 58.535156 C 107.089844 58.535156 107.441406 58.4375 107.742188 58.246094 C 108.042969 58.058594 108.28125 57.785156 108.445312 57.425781 L 109.152344 57.9375 C 108.945312 58.375 108.621094 58.730469 108.183594 58.996094 C 107.742188 59.265625 107.222656 59.398438 106.613281 59.398438 Z M 106.617188 53.535156 C 106.34375 53.535156 106.09375 53.582031 105.875 53.675781 C 105.648438 53.773438 105.457031 53.90625 105.292969 54.078125 C 105.128906 54.246094 105.007812 54.453125 104.914062 54.691406 C 104.824219 54.929688 104.78125 55.183594 104.78125 55.464844 L 104.78125 55.550781 L 108.324219 55.550781 L 108.324219 55.417969 C 108.324219 54.84375 108.171875 54.386719 107.859375 54.046875 C 107.546875 53.707031 107.136719 53.527344 106.617188 53.527344 Z M 115.390625 59.257812 C 115.039062 59.257812 114.777344 59.160156 114.601562 58.964844 C 114.425781 58.769531 114.332031 58.515625 114.332031 58.207031 L 114.332031 53.722656 L 113.277344 53.722656 L 113.277344 52.851562 L 113.875 52.851562 C 114.089844 52.851562 114.234375 52.808594 114.3125 52.726562 C 114.394531 52.640625 114.429688 52.488281 114.429688 52.273438 L 114.429688 51.082031 L 115.328125 51.082031 L 115.328125 52.859375 L 116.734375 52.859375 L 116.734375 53.730469 L 115.328125 53.730469 L 115.328125 58.398438 L 116.636719 58.398438 L 116.636719 59.269531 L 115.390625 59.269531 Z M 118.339844 50.070312 L 119.335938 50.070312 L 119.335938 53.894531 L 119.382812 53.894531 C 119.542969 53.527344 119.761719 53.242188 120.050781 53.023438 C 120.335938 52.804688 120.722656 52.699219 121.199219 52.699219 C 121.863281 52.699219 122.382812 52.914062 122.773438 53.339844 C 123.164062 53.765625 123.351562 54.367188 123.351562 55.148438 L 123.351562 59.257812 L 122.359375 59.257812 L 122.359375 55.324219 C 122.359375 54.175781 121.875 53.601562 120.902344 53.601562 C 120.703125 53.601562 120.511719 53.625 120.324219 53.675781 C 120.140625 53.722656 119.96875 53.796875 119.824219 53.898438 C 119.675781 54.003906 119.554688 54.125 119.46875 54.277344 C 119.382812 54.429688 119.339844 54.613281 119.339844 54.820312 L 119.339844 59.265625 L 118.34375 59.265625 L 118.34375 50.074219 Z M 130.066406 59.257812 C 129.691406 59.257812 129.425781 59.160156 129.265625 58.960938 C 129.105469 58.757812 129.003906 58.515625 128.960938 58.21875 L 128.898438 58.21875 C 128.757812 58.613281 128.527344 58.910156 128.203125 59.113281 C 127.878906 59.3125 127.496094 59.410156 127.046875 59.410156 C 126.371094 59.410156 125.839844 59.234375 125.460938 58.886719 C 125.082031 58.539062 124.890625 58.066406 124.890625 57.472656 C 124.890625 56.882812 125.113281 56.410156 125.558594 56.085938 C 126.003906 55.761719 126.695312 55.597656 127.628906 55.597656 L 128.898438 55.597656 L 128.898438 54.964844 C 128.898438 54.507812 128.777344 54.160156 128.527344 53.925781 C 128.277344 53.6875 127.898438 53.566406 127.382812 53.566406 C 126.992188 53.566406 126.667969 53.648438 126.40625 53.828125 C 126.144531 54.003906 125.929688 54.234375 125.753906 54.519531 L 125.15625 53.960938 C 125.332031 53.613281 125.605469 53.316406 125.984375 53.070312 C 126.363281 52.828125 126.847656 52.707031 127.425781 52.707031 C 128.207031 52.707031 128.8125 52.894531 129.242188 53.277344 C 129.675781 53.664062 129.886719 54.191406 129.886719 54.867188 L 129.886719 58.394531 L 130.621094 58.394531 L 130.621094 59.265625 L 130.058594 59.265625 Z M 127.207031 58.5625 C 127.457031 58.5625 127.683594 58.535156 127.890625 58.480469 C 128.097656 58.417969 128.277344 58.339844 128.429688 58.230469 C 128.574219 58.121094 128.691406 58 128.777344 57.859375 C 128.863281 57.71875 128.898438 57.566406 128.898438 57.402344 L 128.898438 56.347656 L 127.578125 56.347656 C 127.003906 56.347656 126.589844 56.433594 126.328125 56.597656 C 126.066406 56.761719 125.9375 57.003906 125.9375 57.316406 L 125.9375 57.578125 C 125.9375 57.894531 126.054688 58.136719 126.277344 58.308594 C 126.503906 58.484375 126.816406 58.570312 127.207031 58.570312 Z M 133.460938 59.257812 C 133.113281 59.257812 132.851562 59.160156 132.671875 58.964844 C 132.496094 58.769531 132.40625 58.515625 132.40625 58.207031 L 132.40625 53.722656 L 131.347656 53.722656 L 131.347656 52.851562 L 131.945312 52.851562 C 132.160156 52.851562 132.308594 52.808594 132.386719 52.726562 C 132.464844 52.640625 132.503906 52.488281 132.503906 52.273438 L 132.503906 51.082031 L 133.398438 51.082031 L 133.398438 52.859375 L 134.804688 52.859375 L 134.804688 53.730469 L 133.398438 53.730469 L 133.398438 58.398438 L 134.707031 58.398438 L 134.707031 59.269531 L 133.460938 59.269531 Z M 139.691406 53.722656 L 138.644531 53.722656 L 138.644531 52.851562 L 139.691406 52.851562 L 139.691406 51.5625 C 139.691406 51.117188 139.808594 50.75 140.039062 50.484375 C 140.269531 50.210938 140.625 50.074219 141.09375 50.074219 L 142.066406 50.074219 L 142.066406 50.945312 L 140.6875 50.945312 L 140.6875 52.859375 L 144.285156 52.859375 L 144.285156 59.265625 L 143.289062 59.265625 L 143.289062 53.730469 L 140.6875 53.730469 L 140.6875 59.265625 L 139.691406 59.265625 Z M 143.78125 51.355469 C 143.570312 51.355469 143.410156 51.304688 143.320312 51.203125 C 143.21875 51.097656 143.179688 50.964844 143.179688 50.800781 L 143.179688 50.636719 C 143.179688 50.472656 143.226562 50.335938 143.320312 50.234375 C 143.417969 50.128906 143.570312 50.082031 143.78125 50.082031 C 143.996094 50.082031 144.15625 50.128906 144.246094 50.234375 C 144.34375 50.335938 144.386719 50.472656 144.386719 50.636719 L 144.386719 50.800781 C 144.386719 50.964844 144.339844 51.097656 144.246094 51.203125 C 144.148438 51.304688 143.996094 51.355469 143.78125 51.355469 Z M 147.8125 59.265625 C 147.464844 59.265625 147.203125 59.167969 147.027344 58.972656 C 146.847656 58.777344 146.757812 58.523438 146.757812 58.210938 L 146.757812 53.730469 L 145.699219 53.730469 L 145.699219 52.859375 L 146.300781 52.859375 C 146.511719 52.859375 146.660156 52.816406 146.738281 52.730469 C 146.816406 52.644531 146.855469 52.492188 146.855469 52.28125 L 146.855469 51.085938 L 147.753906 51.085938 L 147.753906 52.863281 L 149.15625 52.863281 L 149.15625 53.734375 L 147.753906 53.734375 L 147.753906 58.40625 L 149.058594 58.40625 L 149.058594 59.277344 L 147.8125 59.277344 Z M 152.6875 59.410156 C 152.089844 59.410156 151.585938 59.296875 151.191406 59.070312 C 150.789062 58.84375 150.441406 58.539062 150.152344 58.15625 L 150.863281 57.585938 C 151.113281 57.902344 151.386719 58.136719 151.691406 58.308594 C 151.996094 58.480469 152.355469 58.5625 152.761719 58.5625 C 153.164062 58.5625 153.511719 58.472656 153.75 58.289062 C 153.988281 58.109375 154.105469 57.851562 154.105469 57.523438 C 154.105469 57.273438 154.023438 57.058594 153.859375 56.882812 C 153.695312 56.707031 153.40625 56.585938 152.980469 56.519531 L 152.472656 56.445312 C 152.175781 56.402344 151.898438 56.34375 151.65625 56.25 C 151.40625 56.164062 151.191406 56.050781 151 55.902344 C 150.816406 55.757812 150.671875 55.582031 150.566406 55.363281 C 150.464844 55.148438 150.414062 54.890625 150.414062 54.59375 C 150.414062 54.277344 150.46875 54.003906 150.585938 53.765625 C 150.703125 53.527344 150.863281 53.332031 151.0625 53.175781 C 151.265625 53.015625 151.507812 52.902344 151.789062 52.820312 C 152.070312 52.742188 152.375 52.707031 152.699219 52.707031 C 153.226562 52.707031 153.660156 52.796875 154.011719 52.980469 C 154.367188 53.164062 154.671875 53.414062 154.941406 53.734375 L 154.28125 54.332031 C 154.140625 54.132812 153.933594 53.953125 153.660156 53.789062 C 153.382812 53.625 153.042969 53.546875 152.625 53.546875 C 152.210938 53.546875 151.898438 53.636719 151.6875 53.816406 C 151.472656 53.992188 151.367188 54.234375 151.367188 54.539062 C 151.367188 54.84375 151.472656 55.082031 151.6875 55.222656 C 151.898438 55.363281 152.203125 55.464844 152.601562 55.53125 L 153.101562 55.605469 C 153.816406 55.714844 154.324219 55.914062 154.617188 56.21875 C 154.917969 56.523438 155.0625 56.921875 155.0625 57.40625 C 155.0625 58.027344 154.847656 58.515625 154.429688 58.875 C 154.007812 59.226562 153.425781 59.410156 152.6875 59.410156 Z M 152.6875 59.410156 " fill-opacity="1" fill-rule="evenodd"/></g><path fill="#364459" d="M 69.644531 42.71875 C 67.148438 42.71875 65.222656 40.808594 65.222656 37.640625 C 65.222656 34.476562 67.148438 32.628906 69.644531 32.628906 C 72.140625 32.628906 74.066406 34.445312 74.066406 37.640625 C 74.066406 40.839844 72.210938 42.71875 69.644531 42.71875 Z M 70.421875 29.238281 C 67.890625 29.238281 66.003906 30.394531 65.257812 31.644531 L 65.257812 21.851562 L 61.410156 21.851562 L 61.410156 45.714844 L 65.222656 45.714844 L 65.222656 43.574219 C 66.167969 45.121094 67.953125 46.113281 70.285156 46.113281 C 75.074219 46.113281 78.011719 42.453125 78.011719 37.609375 C 78.011719 32.769531 75.347656 29.238281 70.421875 29.238281 Z M 70.421875 29.238281 " fill-opacity="1" fill-rule="evenodd"/><path fill="#364459" d="M 95.375 29.664062 L 91.460938 29.664062 L 91.460938 39.15625 C 91.460938 41.269531 90.28125 42.75 88.023438 42.75 C 85.761719 42.75 84.71875 41.070312 84.71875 39.089844 L 84.71875 29.664062 L 80.800781 29.664062 L 80.800781 39.785156 C 80.800781 43.347656 83.097656 46.179688 87.007812 46.179688 C 88.933594 46.179688 90.855469 45.386719 91.660156 43.9375 C 91.660156 44.59375 91.730469 45.355469 91.796875 45.714844 L 95.539062 45.714844 C 95.472656 45.125 95.375 44.101562 95.375 42.78125 Z M 95.375 29.664062 " fill-opacity="1" fill-rule="evenodd"/><path fill="#364459" d="M 100.433594 29.664062 L 104.308594 29.664062 L 104.308594 45.714844 L 100.433594 45.714844 Z M 100.433594 29.664062 " fill-opacity="1" fill-rule="evenodd"/><path fill="#364459" d="M 100.433594 21.851562 L 104.359375 21.851562 L 104.359375 25.6875 L 100.433594 25.6875 Z M 100.433594 21.851562 " fill-opacity="1" fill-rule="evenodd"/><path fill="#364459" d="M 113.289062 21.851562 L 109.375 21.851562 L 109.375 45.714844 L 116.4375 45.714844 L 116.4375 41.890625 L 113.28125 41.890625 L 113.28125 21.851562 Z M 113.289062 21.851562 " fill-opacity="1" fill-rule="evenodd"/><path fill="#364459" d="M 126.765625 42.75 C 124.105469 42.75 122.34375 40.703125 122.34375 37.640625 C 122.34375 34.578125 124.234375 32.628906 126.796875 32.628906 C 129.363281 32.628906 131.117188 34.542969 131.117188 37.605469 C 131.117188 40.667969 129.328125 42.746094 126.765625 42.746094 Z M 134.898438 21.851562 L 131.085938 21.851562 L 131.085938 31.539062 C 130.578125 30.515625 129.125 29.230469 126.261719 29.230469 C 121.644531 29.230469 118.4375 33.027344 118.4375 37.636719 C 118.4375 42.484375 121.605469 46.105469 126.332031 46.105469 C 128.660156 46.105469 130.382812 44.984375 131.160156 43.632812 C 131.160156 44.289062 131.257812 45.34375 131.328125 45.710938 L 135.074219 45.710938 C 135.035156 45.449219 134.902344 44.230469 134.902344 42.773438 L 134.902344 21.851562 Z M 134.898438 21.851562 " fill-opacity="1" fill-rule="evenodd"/><g clip-path="url(#e7e8a292fe)"><path fill="#364459" d="M 146.523438 42.785156 C 144.132812 42.785156 141.9375 41.007812 141.9375 37.679688 C 141.9375 34.347656 144.132812 32.636719 146.523438 32.636719 C 148.917969 32.636719 151.113281 34.347656 151.113281 37.679688 C 151.113281 41.007812 148.957031 42.785156 146.523438 42.785156 Z M 146.523438 29.175781 C 141.632812 29.175781 138.023438 32.769531 138.023438 37.679688 C 138.023438 42.585938 141.632812 46.214844 146.523438 46.214844 C 151.417969 46.214844 155.058594 42.621094 155.058594 37.679688 C 155.058594 32.734375 151.449219 29.175781 146.523438 29.175781 Z M 146.523438 29.175781 " fill-opacity="1" fill-rule="evenodd"/></g></svg>