<svg xmlns="http://www.w3.org/2000/svg" xmlns:xlink="http://www.w3.org/1999/xlink" width="220" zoomAndPan="magnify" viewBox="0 0 165 82.499998" height="110" preserveAspectRatio="xMidYMid meet" version="1.0"><defs><clipPath id="id1"><path d="M 0.496094 0 L 164.503906 0 L 164.503906 82.003906 L 0.496094 82.003906 Z M 0.496094 0 " clip-rule="nonzero"/></clipPath><clipPath id="id2"><path d="M 6.53125 9.957031 L 158.609375 9.957031 L 158.609375 71.832031 L 6.53125 71.832031 Z M 6.53125 9.957031 " clip-rule="nonzero"/></clipPath></defs><g clip-path="url(#id1)"><path fill="#ffffff" d="M 0.496094 0 L 164.503906 0 L 164.503906 89.457031 L 0.496094 89.457031 Z M 0.496094 0 " fill-opacity="1" fill-rule="nonzero"/><path fill="#ffffff" d="M 0.496094 0 L 164.503906 0 L 164.503906 82.003906 L 0.496094 82.003906 Z M 0.496094 0 " fill-opacity="1" fill-rule="nonzero"/><path fill="#ffffff" d="M 0.496094 0 L 164.503906 0 L 164.503906 82.003906 L 0.496094 82.003906 Z M 0.496094 0 " fill-opacity="1" fill-rule="nonzero"/><path fill="#ffffff" d="M 0.496094 0 L 164.503906 0 L 164.503906 82.003906 L 0.496094 82.003906 Z M 0.496094 0 " fill-opacity="1" fill-rule="nonzero"/></g><g clip-path="url(#id2)"><path fill="#ffffff" d="M 6.613281 9.957031 L 158.527344 9.957031 L 158.527344 71.832031 L 6.613281 71.832031 Z M 6.613281 9.957031 " fill-opacity="1" fill-rule="nonzero"/></g><path fill="#ffffff" d="M 14.972656 42.496094 C 13.953125 41.480469 13.824219 41.054688 13.824219 38.65625 C 13.824219 35.402344 15.070312 31.773438 16.597656 30.578125 C 18.195312 29.328125 27.265625 29.328125 28.859375 30.578125 C 30.386719 31.773438 31.632812 35.402344 31.632812 38.65625 C 31.632812 41.054688 31.507812 41.480469 30.484375 42.496094 L 29.335938 43.640625 L 16.121094 43.640625 Z M 14.972656 42.496094 " fill-opacity="1" fill-rule="nonzero"/><path fill="#000000" d="M 21.886719 56.152344 C 16 55.800781 11.128906 51.753906 10.222656 46.453125 C 9.632812 42.984375 10.730469 37.242188 13.007812 31.9375 C 13.683594 30.359375 14.328125 29.375 15.277344 28.484375 C 19.964844 24.066406 28.003906 24.828125 31.484375 30.019531 C 32.796875 31.980469 34.5625 37.289062 35.125 40.964844 C 35.457031 43.140625 35.480469 45.394531 35.1875 46.820312 C 34.191406 51.605469 29.921875 55.335938 24.605469 56.054688 C 24.117188 56.121094 22.964844 56.199219 22.625 56.191406 C 22.515625 56.1875 22.183594 56.171875 21.886719 56.152344 Z M 29.386719 50.613281 C 29.652344 50.476562 29.792969 50.242188 29.792969 49.9375 C 29.792969 49.671875 29.730469 49.535156 29.535156 49.367188 C 29.363281 49.214844 29.257812 49.1875 28.976562 49.207031 C 28.242188 49.269531 28.070312 50.261719 28.734375 50.609375 C 28.882812 50.6875 29.242188 50.691406 29.386719 50.617188 Z M 31.929688 49.117188 C 33.226562 48.683594 33.808594 47.195312 33.160156 45.964844 C 32.496094 44.699219 30.75 44.425781 29.71875 45.425781 C 28.839844 46.273438 28.832031 47.710938 29.699219 48.585938 C 30.265625 49.160156 31.160156 49.371094 31.929688 49.117188 Z M 19.070312 44.050781 C 19.582031 43.972656 20.101562 43.832031 20.574219 43.648438 C 21.289062 43.367188 21.78125 43.269531 22.546875 43.246094 C 23.53125 43.21875 23.855469 43.28125 25.261719 43.765625 C 28.113281 44.75 30.960938 43.589844 31.574219 41.183594 C 31.800781 40.285156 31.847656 39.878906 31.851562 38.71875 C 31.851562 36.996094 31.59375 35.566406 30.886719 33.441406 C 30.191406 31.335938 29.21875 30.230469 27.597656 29.695312 C 26.804688 29.433594 26.703125 29.425781 23.699219 29.488281 C 22.46875 29.511719 21.578125 29.507812 20.566406 29.472656 C 19.3125 29.429688 19.105469 29.429688 18.769531 29.484375 C 16.714844 29.820312 15.433594 30.972656 14.675781 33.167969 C 13.621094 36.222656 13.351562 38.734375 13.835938 40.90625 C 14.042969 41.816406 14.273438 42.261719 14.851562 42.835938 C 15.886719 43.863281 17.394531 44.296875 19.070312 44.046875 Z M 16.425781 41.625 C 15.597656 41.445312 15.039062 40.703125 15.175781 39.972656 C 15.257812 39.539062 15.582031 39.046875 15.886719 38.902344 C 16.429688 38.640625 17.816406 38.582031 18.546875 38.785156 C 18.75 38.839844 18.71875 38.863281 18.347656 38.921875 C 17.867188 39 17.519531 39.179688 17.855469 39.179688 C 18.054688 39.179688 17.992188 39.242188 17.71875 39.316406 C 17.578125 39.355469 17.433594 39.417969 17.394531 39.460938 C 17.308594 39.554688 17.3125 39.554688 17.859375 39.476562 C 18.257812 39.414062 18.574219 39.425781 18.695312 39.496094 C 18.734375 39.523438 18.722656 39.539062 18.632812 39.558594 C 18.339844 39.625 18.0625 39.710938 17.933594 39.777344 C 17.777344 39.855469 17.535156 40.042969 17.535156 40.085938 C 17.535156 40.101562 17.75 40.117188 18.007812 40.117188 C 18.265625 40.121094 18.53125 40.140625 18.597656 40.160156 C 18.714844 40.199219 18.714844 40.199219 18.507812 40.242188 C 18.132812 40.324219 17.820312 40.550781 17.660156 40.847656 C 17.597656 40.960938 17.609375 40.96875 17.800781 40.917969 C 17.988281 40.871094 18.179688 40.902344 18.179688 40.984375 C 18.179688 41.070312 17.796875 41.390625 17.554688 41.503906 C 17.1875 41.675781 16.851562 41.714844 16.433594 41.625 Z M 28.320312 41.640625 C 27.898438 41.558594 27.269531 41.113281 27.335938 40.949219 C 27.363281 40.878906 27.625 40.882812 27.8125 40.953125 C 27.882812 40.980469 27.882812 40.972656 27.824219 40.859375 C 27.660156 40.542969 27.371094 40.328125 27 40.25 C 26.667969 40.179688 26.863281 40.121094 27.46875 40.117188 C 27.738281 40.117188 27.957031 40.101562 27.957031 40.085938 C 27.957031 40 27.550781 39.765625 27.242188 39.671875 C 26.707031 39.515625 26.710938 39.515625 26.921875 39.457031 C 27.070312 39.414062 27.179688 39.417969 27.609375 39.476562 C 27.890625 39.515625 28.132812 39.535156 28.144531 39.523438 C 28.183594 39.484375 27.917969 39.34375 27.710938 39.296875 C 27.496094 39.246094 27.457031 39.175781 27.640625 39.175781 C 27.964844 39.175781 27.632812 39.003906 27.140625 38.917969 C 26.722656 38.847656 26.714844 38.84375 26.910156 38.789062 C 27.585938 38.589844 28.859375 38.625 29.496094 38.863281 C 29.917969 39.019531 30.285156 39.589844 30.3125 40.128906 C 30.355469 41.089844 29.359375 41.839844 28.320312 41.636719 Z M 21.992188 40.867188 C 21.238281 40.71875 20.203125 40.199219 19.867188 39.808594 C 19.738281 39.652344 19.738281 39.449219 19.867188 39.316406 C 20.035156 39.152344 20.183594 39.183594 20.550781 39.460938 C 21.917969 40.492188 23.480469 40.492188 24.910156 39.457031 C 25.304688 39.167969 25.453125 39.148438 25.621094 39.34375 C 25.808594 39.5625 25.738281 39.738281 25.367188 40.011719 C 24.308594 40.785156 23.109375 41.089844 21.992188 40.867188 Z M 17.96875 37.503906 C 16.585938 37.304688 15.867188 35.625 16.648438 34.421875 C 17.324219 33.378906 18.820312 33.226562 19.707031 34.109375 C 20.675781 35.074219 20.394531 36.75 19.167969 37.328125 C 18.753906 37.519531 18.421875 37.570312 17.96875 37.503906 Z M 18.667969 37.050781 C 19.121094 36.929688 19.519531 36.597656 19.722656 36.164062 C 19.890625 35.8125 19.882812 35.246094 19.707031 34.875 C 19.238281 33.890625 17.933594 33.664062 17.207031 34.4375 C 16.847656 34.820312 16.683594 35.335938 16.769531 35.785156 C 16.953125 36.699219 17.8125 37.273438 18.667969 37.050781 Z M 18.085938 36.527344 C 17.875 36.492188 17.566406 36.265625 17.445312 36.046875 C 17.035156 35.320312 17.550781 34.476562 18.371094 34.535156 C 18.9375 34.574219 19.289062 34.953125 19.289062 35.53125 C 19.289062 36.191406 18.761719 36.628906 18.085938 36.527344 Z M 26.863281 37.511719 C 26.222656 37.410156 25.699219 37.011719 25.394531 36.40625 C 25 35.617188 25.210938 34.578125 25.878906 34.011719 C 27.171875 32.90625 29.160156 33.832031 29.160156 35.542969 C 29.160156 36.765625 28.066406 37.703125 26.863281 37.511719 Z M 27.734375 36.992188 C 28.453125 36.722656 28.894531 35.808594 28.660156 35.078125 C 28.3125 33.992188 26.996094 33.621094 26.152344 34.371094 C 24.871094 35.511719 26.125 37.589844 27.734375 36.992188 Z M 26.953125 36.566406 C 26.738281 36.535156 26.433594 36.308594 26.3125 36.089844 C 25.902344 35.363281 26.417969 34.519531 27.238281 34.574219 C 27.804688 34.617188 28.15625 34.992188 28.15625 35.574219 C 28.15625 36.234375 27.628906 36.671875 26.953125 36.566406 Z M 15.542969 33.796875 C 15.230469 32.933594 15.820312 32.289062 17.113281 32.082031 C 17.582031 32.003906 17.898438 32.003906 17.867188 32.074219 C 17.855469 32.105469 17.78125 32.144531 17.703125 32.164062 C 17.34375 32.253906 17.527344 32.332031 18.960938 32.699219 L 19.867188 32.933594 L 18.667969 32.925781 C 17.140625 32.914062 17.089844 32.925781 16.578125 33.445312 C 16.160156 33.863281 16.050781 33.929688 15.792969 33.929688 C 15.601562 33.929688 15.589844 33.925781 15.542969 33.796875 Z M 29.316406 33.839844 C 29.238281 33.785156 29.078125 33.628906 28.953125 33.488281 C 28.488281 32.957031 28.1875 32.882812 26.703125 32.914062 C 26.105469 32.925781 25.640625 32.929688 25.664062 32.917969 C 25.683594 32.910156 26.0625 32.808594 26.5 32.703125 C 27.472656 32.457031 27.96875 32.304688 27.949219 32.25 C 27.945312 32.226562 27.867188 32.191406 27.78125 32.167969 C 27.699219 32.144531 27.621094 32.101562 27.609375 32.066406 C 27.582031 31.992188 28.230469 32.035156 28.675781 32.144531 C 29.738281 32.402344 30.214844 33.007812 29.949219 33.757812 C 29.890625 33.914062 29.886719 33.917969 29.675781 33.925781 C 29.5 33.9375 29.433594 33.917969 29.320312 33.839844 Z M 29.316406 33.839844 " fill-opacity="1" fill-rule="nonzero"/><path fill="#000000" d="M 20.03125 55.824219 C 15.226562 54.796875 11.574219 51.472656 10.445312 47.09375 C 9.558594 43.644531 10.910156 36.515625 13.46875 31.183594 C 14.726562 28.5625 17.394531 26.566406 20.542969 25.894531 C 21.917969 25.601562 24.144531 25.664062 25.515625 26.039062 C 27.511719 26.585938 28.71875 27.273438 30.140625 28.671875 C 31.21875 29.730469 31.5 30.113281 32.066406 31.292969 C 33.300781 33.871094 34.53125 37.882812 35.023438 40.953125 C 35.285156 42.589844 35.324219 45.777344 35.09375 46.820312 C 34.117188 51.257812 30.285156 54.820312 25.410156 55.820312 C 24.027344 56.101562 21.34375 56.105469 20.027344 55.824219 Z M 29.65625 50.488281 C 29.933594 50.210938 29.867188 49.539062 29.535156 49.308594 C 28.84375 48.824219 27.988281 49.53125 28.34375 50.300781 C 28.472656 50.582031 28.617188 50.664062 28.996094 50.664062 C 29.265625 50.664062 29.5625 50.585938 29.65625 50.488281 Z M 32.464844 48.925781 C 33.683594 48.078125 33.832031 46.46875 32.792969 45.382812 C 31.625 44.167969 29.328125 44.863281 29.015625 46.527344 C 28.894531 47.164062 29.140625 48.054688 29.582031 48.558594 C 30.242188 49.320312 31.644531 49.5 32.464844 48.925781 Z M 20.515625 43.746094 C 21.304688 43.492188 21.984375 43.386719 22.738281 43.386719 C 23.492188 43.386719 24.171875 43.496094 24.960938 43.746094 C 27.140625 44.4375 29.210938 44.183594 30.488281 43.0625 C 31.449219 42.21875 31.769531 41.324219 31.847656 39.257812 C 31.929688 37.191406 31.734375 35.847656 31.050781 33.773438 C 30.253906 31.34375 29.289062 30.171875 27.636719 29.625 C 27.03125 29.425781 26.261719 29.394531 22.480469 29.433594 L 18.035156 29.476562 L 17.175781 29.914062 C 15.636719 30.699219 14.929688 31.835938 14.058594 34.9375 C 13.710938 36.167969 13.667969 36.574219 13.667969 38.652344 C 13.667969 40.773438 13.699219 41.042969 14.003906 41.707031 C 14.460938 42.695312 14.96875 43.195312 16.007812 43.691406 C 17.195312 44.261719 18.832031 44.28125 20.511719 43.746094 Z M 20.515625 43.746094 " fill-opacity="1" fill-rule="nonzero"/><path fill="#e42320" d="M 19.445312 55.613281 C 18.207031 55.285156 16.273438 54.402344 15.238281 53.699219 C 12.15625 51.597656 10.230469 48.058594 10.230469 44.488281 C 10.230469 40.917969 11.636719 35.230469 13.476562 31.441406 C 14.105469 30.140625 14.386719 29.75 15.339844 28.820312 C 16.664062 27.53125 17.664062 26.910156 19.40625 26.296875 C 20.597656 25.882812 20.832031 25.847656 22.664062 25.84375 C 24.320312 25.84375 24.816406 25.894531 25.738281 26.179688 C 27.515625 26.726562 28.738281 27.449219 30.074219 28.75 C 31.132812 29.777344 31.371094 30.109375 32.007812 31.449219 C 32.867188 33.25 33.640625 35.414062 34.222656 37.644531 C 34.925781 40.359375 35.121094 41.796875 35.121094 44.328125 C 35.121094 46.332031 35.078125 46.789062 34.804688 47.605469 C 33.550781 51.332031 30.757812 54.015625 26.6875 55.410156 C 25.625 55.773438 25.292969 55.816406 23.03125 55.855469 C 20.902344 55.898438 20.386719 55.859375 19.449219 55.609375 Z M 29.808594 50.25 C 29.832031 50.058594 29.816406 49.75 29.769531 49.558594 C 29.566406 48.773438 28.222656 49.078125 28.222656 49.910156 C 28.222656 50.480469 28.492188 50.683594 29.171875 50.636719 C 29.660156 50.601562 29.769531 50.539062 29.808594 50.25 Z M 32.257812 49.078125 C 33.375 48.574219 33.828125 47.128906 33.25 45.914062 C 32.285156 43.890625 28.953125 44.625 28.953125 46.863281 C 28.953125 48.726562 30.59375 49.828125 32.257812 49.074219 Z M 20.535156 43.804688 C 22.042969 43.429688 23.484375 43.4375 25.019531 43.828125 C 28.078125 44.613281 30.367188 43.957031 31.363281 42.011719 L 31.804688 41.148438 L 31.796875 38.515625 C 31.789062 36.078125 31.761719 35.792969 31.386719 34.574219 C 30.523438 31.753906 29.480469 30.261719 27.980469 29.703125 C 27.242188 29.429688 26.851562 29.40625 22.539062 29.40625 L 17.890625 29.40625 L 16.949219 29.972656 C 15.671875 30.742188 15.085938 31.621094 14.308594 33.921875 C 13.707031 35.703125 13.695312 35.789062 13.628906 38.144531 C 13.554688 40.84375 13.648438 41.398438 14.367188 42.457031 C 14.703125 42.957031 15.074219 43.28125 15.648438 43.570312 C 17.09375 44.304688 18.300781 44.363281 20.535156 43.804688 Z M 20.535156 43.804688 " fill-opacity="1" fill-rule="nonzero"/><path fill="#ffffff" d="M 30.550781 49.175781 C 29.585938 48.816406 29.019531 48 29.019531 46.96875 C 29.019531 46.242188 29.136719 45.945312 29.609375 45.46875 C 29.960938 45.117188 30.101562 45.035156 30.554688 44.894531 C 32.105469 44.425781 33.441406 45.410156 33.441406 47.011719 C 33.441406 47.9375 32.984375 48.679688 32.183594 49.058594 C 31.757812 49.261719 30.933594 49.320312 30.550781 49.175781 Z M 30.550781 49.175781 " fill-opacity="1" fill-rule="nonzero"/><path fill="#ffffff" d="M 28.449219 50.414062 C 28.234375 50.191406 28.234375 49.726562 28.4375 49.464844 C 28.644531 49.207031 29.089844 49.074219 29.375 49.195312 C 29.644531 49.304688 29.753906 49.542969 29.753906 50.039062 C 29.753906 50.53125 29.664062 50.582031 29.039062 50.582031 C 28.683594 50.582031 28.582031 50.554688 28.449219 50.414062 Z M 28.449219 50.414062 " fill-opacity="1" fill-rule="nonzero"/><path fill="#000000" d="M 53.410156 41.75 C 53.410156 42.636719 53.289062 43.410156 53.042969 44.066406 C 52.808594 44.710938 52.46875 45.25 52.023438 45.679688 C 51.585938 46.105469 51.058594 46.421875 50.433594 46.632812 C 49.808594 46.832031 49.109375 46.933594 48.339844 46.933594 C 48.027344 46.933594 47.714844 46.929688 47.402344 46.917969 C 47.089844 46.90625 46.796875 46.890625 46.515625 46.863281 C 46.246094 46.855469 46.007812 46.839844 45.796875 46.8125 C 45.585938 46.804688 45.417969 46.789062 45.296875 46.761719 C 45.0625 46.730469 44.945312 46.589844 44.945312 46.347656 L 44.945312 34.898438 C 44.945312 34.652344 45.0625 34.515625 45.296875 34.480469 C 45.417969 34.460938 45.585938 34.441406 45.796875 34.429688 C 46.007812 34.410156 46.246094 34.390625 46.515625 34.378906 C 46.796875 34.359375 47.089844 34.339844 47.402344 34.328125 C 47.714844 34.320312 48.027344 34.3125 48.339844 34.3125 C 49.109375 34.3125 49.804688 34.410156 50.433594 34.613281 C 51.058594 34.8125 51.585938 35.128906 52.023438 35.5625 C 52.46875 35.984375 52.808594 36.523438 53.042969 37.179688 C 53.289062 37.824219 53.410156 38.59375 53.410156 39.496094 Z M 51.890625 39.5 C 51.890625 38.746094 51.800781 38.117188 51.621094 37.617188 C 51.445312 37.117188 51.191406 36.722656 50.867188 36.433594 C 50.558594 36.132812 50.183594 35.921875 49.746094 35.800781 C 49.3125 35.679688 48.84375 35.617188 48.34375 35.617188 C 47.953125 35.617188 47.613281 35.621094 47.320312 35.632812 C 47.042969 35.632812 46.765625 35.644531 46.484375 35.667969 L 46.484375 45.597656 C 46.75 45.621094 47.03125 45.632812 47.320312 45.632812 L 48.34375 45.632812 C 48.84375 45.632812 49.3125 45.574219 49.746094 45.449219 C 50.183594 45.328125 50.558594 45.117188 50.867188 44.816406 C 51.191406 44.515625 51.445312 44.113281 51.621094 43.617188 C 51.800781 43.117188 51.890625 42.492188 51.890625 41.746094 Z M 51.890625 39.5 " fill-opacity="1" fill-rule="nonzero"/><path fill="#000000" d="M 61.914062 46.480469 C 61.914062 46.570312 61.878906 46.648438 61.8125 46.714844 C 61.746094 46.78125 61.667969 46.8125 61.578125 46.8125 L 60.808594 46.8125 C 60.71875 46.8125 60.640625 46.78125 60.574219 46.714844 C 60.507812 46.648438 60.476562 46.570312 60.476562 46.480469 L 60.476562 46.117188 C 60.074219 46.347656 59.664062 46.542969 59.234375 46.699219 C 58.8125 46.851562 58.367188 46.929688 57.894531 46.929688 C 57.539062 46.929688 57.191406 46.890625 56.859375 46.8125 C 56.535156 46.722656 56.246094 46.578125 55.988281 46.363281 C 55.742188 46.152344 55.542969 45.875 55.386719 45.527344 C 55.242188 45.183594 55.171875 44.75 55.171875 44.230469 L 55.171875 44.03125 C 55.171875 43.574219 55.234375 43.179688 55.371094 42.847656 C 55.515625 42.515625 55.742188 42.234375 56.058594 42.011719 C 56.382812 41.777344 56.796875 41.605469 57.3125 41.496094 C 57.824219 41.382812 58.453125 41.328125 59.203125 41.328125 L 60.4375 41.328125 L 60.4375 40.660156 C 60.4375 39.960938 60.304688 39.472656 60.039062 39.195312 C 59.769531 38.914062 59.308594 38.777344 58.648438 38.777344 C 58.101562 38.777344 57.621094 38.792969 57.210938 38.828125 C 56.796875 38.847656 56.421875 38.878906 56.089844 38.910156 L 56.003906 38.910156 C 55.925781 38.910156 55.851562 38.894531 55.785156 38.859375 C 55.726562 38.824219 55.699219 38.753906 55.699219 38.644531 L 55.699219 38.0625 C 55.699219 37.882812 55.816406 37.777344 56.050781 37.742188 C 56.394531 37.6875 56.769531 37.636719 57.171875 37.59375 C 57.582031 37.550781 58.074219 37.527344 58.644531 37.527344 C 59.804688 37.527344 60.636719 37.804688 61.136719 38.363281 C 61.648438 38.90625 61.910156 39.675781 61.910156 40.660156 L 61.910156 46.476562 Z M 60.4375 42.382812 L 59.203125 42.382812 C 58.699219 42.382812 58.28125 42.417969 57.949219 42.484375 C 57.609375 42.539062 57.351562 42.632812 57.160156 42.765625 C 56.96875 42.886719 56.835938 43.054688 56.757812 43.265625 C 56.679688 43.464844 56.644531 43.71875 56.640625 44.015625 L 56.640625 44.214844 C 56.640625 44.8125 56.777344 45.222656 57.042969 45.433594 C 57.3125 45.628906 57.691406 45.734375 58.179688 45.734375 C 58.570312 45.734375 58.945312 45.675781 59.300781 45.566406 C 59.660156 45.453125 60.039062 45.285156 60.4375 45.066406 Z M 60.4375 42.382812 " fill-opacity="1" fill-rule="nonzero"/><path fill="#000000" d="M 68.324219 38.515625 C 68.324219 38.707031 68.207031 38.800781 67.972656 38.800781 C 67.585938 38.800781 67.203125 38.855469 66.835938 38.96875 C 66.480469 39.066406 66.089844 39.246094 65.664062 39.5 L 65.664062 46.484375 C 65.664062 46.574219 65.628906 46.652344 65.566406 46.71875 C 65.496094 46.78125 65.417969 46.816406 65.332031 46.816406 L 64.511719 46.816406 C 64.417969 46.816406 64.34375 46.78125 64.277344 46.71875 C 64.21875 46.652344 64.191406 46.570312 64.191406 46.484375 L 64.191406 37.984375 C 64.191406 37.894531 64.21875 37.820312 64.277344 37.753906 C 64.34375 37.6875 64.421875 37.652344 64.511719 37.652344 L 65.296875 37.652344 C 65.386719 37.652344 65.460938 37.6875 65.515625 37.753906 C 65.585938 37.820312 65.617188 37.898438 65.617188 37.984375 L 65.617188 38.335938 C 66.039062 38.046875 66.441406 37.839844 66.820312 37.71875 C 67.210938 37.597656 67.597656 37.535156 67.976562 37.535156 C 68.210938 37.535156 68.328125 37.632812 68.328125 37.835938 L 68.328125 38.519531 Z M 68.324219 38.515625 " fill-opacity="1" fill-rule="nonzero"/><path fill="#000000" d="M 76.960938 46.480469 C 76.960938 46.570312 76.929688 46.648438 76.863281 46.714844 C 76.808594 46.78125 76.734375 46.8125 76.644531 46.8125 L 75.808594 46.8125 C 75.71875 46.8125 75.640625 46.78125 75.574219 46.714844 C 75.519531 46.648438 75.488281 46.570312 75.488281 46.480469 L 75.488281 46.164062 C 75.019531 46.417969 74.585938 46.617188 74.183594 46.746094 C 73.78125 46.867188 73.332031 46.929688 72.828125 46.929688 C 71.8125 46.929688 71.074219 46.628906 70.601562 46.03125 C 70.144531 45.433594 69.914062 44.574219 69.914062 43.464844 L 69.914062 37.980469 C 69.914062 37.890625 69.949219 37.8125 70.015625 37.75 C 70.082031 37.683594 70.160156 37.648438 70.25 37.648438 L 71.054688 37.648438 C 71.144531 37.648438 71.222656 37.683594 71.285156 37.75 C 71.355469 37.8125 71.390625 37.894531 71.386719 37.980469 L 71.386719 43.464844 C 71.386719 43.886719 71.421875 44.242188 71.488281 44.53125 C 71.566406 44.8125 71.675781 45.03125 71.820312 45.199219 C 71.976562 45.367188 72.171875 45.488281 72.40625 45.566406 C 72.640625 45.628906 72.910156 45.664062 73.226562 45.664062 C 73.582031 45.664062 73.953125 45.605469 74.328125 45.480469 C 74.710938 45.359375 75.09375 45.203125 75.484375 45.015625 L 75.484375 37.980469 C 75.484375 37.890625 75.519531 37.8125 75.582031 37.75 C 75.652344 37.683594 75.726562 37.648438 75.816406 37.648438 L 76.636719 37.648438 C 76.730469 37.648438 76.800781 37.683594 76.855469 37.75 C 76.921875 37.8125 76.957031 37.894531 76.957031 37.980469 L 76.957031 46.480469 Z M 76.960938 46.480469 " fill-opacity="1" fill-rule="nonzero"/><path fill="#000000" d="M 90.320312 46.480469 C 90.320312 46.570312 90.285156 46.648438 90.21875 46.714844 C 90.152344 46.78125 90.074219 46.8125 89.984375 46.8125 L 89.179688 46.8125 C 89.089844 46.8125 89.011719 46.78125 88.949219 46.714844 C 88.882812 46.648438 88.847656 46.570312 88.847656 46.480469 L 88.847656 40.582031 C 88.847656 40.226562 88.808594 39.9375 88.730469 39.71875 C 88.652344 39.484375 88.546875 39.300781 88.414062 39.167969 C 88.28125 39.035156 88.121094 38.9375 87.929688 38.882812 C 87.75 38.828125 87.550781 38.800781 87.328125 38.800781 C 87.027344 38.800781 86.703125 38.84375 86.355469 38.933594 C 86.023438 39.023438 85.691406 39.128906 85.371094 39.253906 C 85.46875 39.617188 85.519531 40.050781 85.519531 40.550781 L 85.519531 46.484375 C 85.519531 46.574219 85.492188 46.652344 85.433594 46.71875 C 85.378906 46.78125 85.308594 46.816406 85.21875 46.816406 L 84.332031 46.816406 C 84.242188 46.816406 84.167969 46.78125 84.113281 46.71875 C 84.070312 46.652344 84.050781 46.570312 84.050781 46.484375 L 84.050781 40.550781 C 84.050781 40.1875 84.019531 39.890625 83.964844 39.667969 C 83.917969 39.4375 83.84375 39.257812 83.730469 39.136719 C 83.617188 39.003906 83.484375 38.914062 83.328125 38.867188 C 83.171875 38.824219 82.980469 38.804688 82.757812 38.804688 C 82.457031 38.804688 82.125 38.867188 81.769531 39.003906 C 81.425781 39.125 81.074219 39.273438 80.714844 39.453125 L 80.714844 46.488281 C 80.714844 46.578125 80.6875 46.652344 80.632812 46.71875 C 80.574219 46.785156 80.503906 46.820312 80.414062 46.820312 L 79.527344 46.820312 C 79.4375 46.820312 79.363281 46.785156 79.3125 46.71875 C 79.265625 46.652344 79.242188 46.574219 79.246094 46.488281 L 79.246094 37.988281 C 79.246094 37.898438 79.273438 37.820312 79.332031 37.753906 C 79.398438 37.691406 79.476562 37.65625 79.5625 37.65625 L 80.402344 37.65625 C 80.492188 37.65625 80.566406 37.691406 80.617188 37.753906 C 80.683594 37.820312 80.71875 37.902344 80.71875 37.988281 L 80.71875 38.304688 C 81.050781 38.09375 81.429688 37.910156 81.839844 37.753906 C 82.25 37.601562 82.691406 37.523438 83.164062 37.523438 C 83.519531 37.523438 83.832031 37.578125 84.101562 37.691406 C 84.378906 37.789062 84.625 37.960938 84.835938 38.207031 C 85.304688 37.984375 85.773438 37.820312 86.242188 37.707031 C 86.722656 37.585938 87.179688 37.523438 87.613281 37.523438 C 87.992188 37.523438 88.34375 37.574219 88.667969 37.671875 C 89 37.773438 89.292969 37.945312 89.539062 38.191406 C 89.78125 38.421875 89.972656 38.742188 90.105469 39.140625 C 90.25 39.527344 90.324219 40.011719 90.324219 40.589844 L 90.324219 46.488281 Z M 90.320312 46.480469 " fill-opacity="1" fill-rule="nonzero"/><path fill="#000000" d="M 99.003906 46.480469 C 99.003906 46.570312 98.972656 46.648438 98.90625 46.714844 C 98.835938 46.78125 98.761719 46.8125 98.671875 46.8125 L 97.902344 46.8125 C 97.8125 46.8125 97.734375 46.78125 97.667969 46.714844 C 97.601562 46.648438 97.570312 46.570312 97.570312 46.480469 L 97.570312 46.117188 C 97.167969 46.347656 96.753906 46.542969 96.328125 46.699219 C 95.90625 46.851562 95.460938 46.929688 94.988281 46.929688 C 94.628906 46.929688 94.285156 46.890625 93.949219 46.8125 C 93.628906 46.722656 93.335938 46.578125 93.082031 46.363281 C 92.835938 46.152344 92.636719 45.875 92.480469 45.527344 C 92.332031 45.183594 92.261719 44.75 92.261719 44.230469 L 92.261719 44.03125 C 92.261719 43.574219 92.328125 43.179688 92.460938 42.847656 C 92.605469 42.515625 92.832031 42.234375 93.148438 42.011719 C 93.472656 41.777344 93.886719 41.605469 94.402344 41.496094 C 94.914062 41.382812 95.542969 41.328125 96.292969 41.328125 L 97.53125 41.328125 L 97.53125 40.660156 C 97.53125 39.960938 97.394531 39.472656 97.128906 39.195312 C 96.859375 38.914062 96.398438 38.777344 95.738281 38.777344 C 95.191406 38.777344 94.714844 38.792969 94.300781 38.828125 C 93.886719 38.847656 93.511719 38.878906 93.179688 38.910156 L 93.09375 38.910156 C 93.015625 38.910156 92.945312 38.894531 92.875 38.859375 C 92.820312 38.824219 92.792969 38.753906 92.792969 38.644531 L 92.792969 38.0625 C 92.792969 37.882812 92.910156 37.777344 93.140625 37.742188 C 93.488281 37.6875 93.859375 37.636719 94.261719 37.59375 C 94.675781 37.550781 95.167969 37.527344 95.738281 37.527344 C 96.894531 37.527344 97.726562 37.804688 98.230469 38.363281 C 98.746094 38.90625 99 39.675781 99 40.660156 L 99 46.476562 Z M 97.53125 42.382812 L 96.292969 42.382812 C 95.792969 42.382812 95.375 42.417969 95.039062 42.484375 C 94.707031 42.539062 94.441406 42.632812 94.253906 42.765625 C 94.0625 42.886719 93.929688 43.054688 93.851562 43.265625 C 93.773438 43.464844 93.734375 43.71875 93.734375 44.015625 L 93.734375 44.214844 C 93.734375 44.8125 93.867188 45.222656 94.136719 45.433594 C 94.402344 45.628906 94.785156 45.734375 95.273438 45.734375 C 95.664062 45.734375 96.039062 45.675781 96.394531 45.566406 C 96.753906 45.453125 97.128906 45.285156 97.53125 45.066406 Z M 97.53125 42.382812 " fill-opacity="1" fill-rule="nonzero"/><path fill="#000000" d="M 110.21875 46.480469 C 110.21875 46.570312 110.183594 46.648438 110.117188 46.714844 C 110.050781 46.78125 109.972656 46.8125 109.886719 46.8125 L 109.03125 46.8125 C 108.941406 46.8125 108.863281 46.78125 108.796875 46.714844 C 108.730469 46.648438 108.699219 46.570312 108.699219 46.480469 L 108.699219 40.949219 L 102.972656 40.949219 L 102.972656 46.480469 C 102.972656 46.570312 102.941406 46.648438 102.875 46.714844 C 102.804688 46.78125 102.726562 46.8125 102.640625 46.8125 L 101.789062 46.8125 C 101.699219 46.8125 101.621094 46.78125 101.554688 46.714844 C 101.488281 46.648438 101.453125 46.570312 101.453125 46.480469 L 101.453125 34.769531 C 101.453125 34.679688 101.488281 34.601562 101.554688 34.535156 C 101.621094 34.46875 101.699219 34.433594 101.789062 34.433594 L 102.640625 34.433594 C 102.730469 34.433594 102.808594 34.46875 102.875 34.535156 C 102.941406 34.601562 102.972656 34.679688 102.972656 34.769531 L 102.972656 39.601562 L 108.699219 39.601562 L 108.699219 34.769531 C 108.699219 34.679688 108.734375 34.601562 108.796875 34.535156 C 108.867188 34.46875 108.941406 34.433594 109.03125 34.433594 L 109.886719 34.433594 C 109.976562 34.433594 110.054688 34.46875 110.117188 34.535156 C 110.1875 34.601562 110.21875 34.679688 110.21875 34.769531 Z M 110.21875 46.480469 " fill-opacity="1" fill-rule="nonzero"/><path fill="#000000" d="M 121.582031 41.699219 C 121.582031 42.535156 121.488281 43.261719 121.296875 43.882812 C 121.121094 44.503906 120.859375 45.03125 120.527344 45.464844 C 120.195312 45.886719 119.792969 46.214844 119.320312 46.449219 C 118.855469 46.679688 118.339844 46.832031 117.78125 46.898438 L 117.78125 47.613281 C 117.78125 47.824219 117.792969 47.992188 117.816406 48.113281 C 117.847656 48.246094 117.902344 48.347656 117.980469 48.414062 C 118.058594 48.484375 118.164062 48.527344 118.296875 48.546875 C 118.433594 48.570312 118.605469 48.582031 118.816406 48.582031 L 119.804688 48.582031 C 119.902344 48.582031 119.988281 48.605469 120.054688 48.648438 C 120.132812 48.691406 120.171875 48.757812 120.171875 48.847656 L 120.171875 49.414062 C 120.171875 49.558594 120.050781 49.660156 119.804688 49.714844 C 119.570312 49.78125 119.242188 49.8125 118.816406 49.8125 C 118.394531 49.8125 118.042969 49.78125 117.730469 49.714844 C 117.417969 49.660156 117.15625 49.546875 116.945312 49.382812 C 116.730469 49.214844 116.570312 48.988281 116.460938 48.699219 C 116.359375 48.417969 116.308594 48.066406 116.308594 47.632812 L 116.308594 46.882812 C 115.75 46.816406 115.238281 46.667969 114.769531 46.429688 C 114.3125 46.1875 113.917969 45.855469 113.582031 45.433594 C 113.242188 45.011719 112.984375 44.492188 112.792969 43.882812 C 112.613281 43.257812 112.527344 42.53125 112.527344 41.699219 L 112.527344 39.550781 C 112.527344 38.628906 112.636719 37.839844 112.859375 37.183594 C 113.09375 36.515625 113.410156 35.972656 113.8125 35.550781 C 114.214844 35.128906 114.6875 34.820312 115.238281 34.617188 C 115.792969 34.417969 116.402344 34.316406 117.0625 34.316406 C 117.71875 34.316406 118.324219 34.414062 118.867188 34.617188 C 119.425781 34.816406 119.90625 35.128906 120.308594 35.550781 C 120.710938 35.972656 121.023438 36.519531 121.246094 37.183594 C 121.46875 37.839844 121.578125 38.625 121.578125 39.550781 L 121.578125 41.699219 Z M 120.042969 39.550781 C 120.042969 38.847656 119.96875 38.253906 119.824219 37.769531 C 119.691406 37.277344 119.496094 36.878906 119.242188 36.566406 C 118.984375 36.257812 118.671875 36.035156 118.304688 35.898438 C 117.9375 35.753906 117.523438 35.683594 117.066406 35.683594 C 116.609375 35.683594 116.195312 35.757812 115.824219 35.898438 C 115.457031 36.035156 115.140625 36.257812 114.875 36.566406 C 114.617188 36.878906 114.414062 37.277344 114.273438 37.769531 C 114.136719 38.257812 114.070312 38.851562 114.070312 39.550781 L 114.070312 41.699219 C 114.070312 42.398438 114.140625 42.996094 114.273438 43.480469 C 114.414062 43.972656 114.617188 44.371094 114.875 44.683594 C 115.140625 44.992188 115.457031 45.222656 115.824219 45.367188 C 116.195312 45.5 116.609375 45.566406 117.066406 45.566406 C 117.523438 45.566406 117.9375 45.5 118.304688 45.367188 C 118.671875 45.222656 118.984375 44.996094 119.242188 44.683594 C 119.496094 44.371094 119.691406 43.972656 119.824219 43.480469 C 119.96875 42.992188 120.042969 42.398438 120.042969 41.699219 Z M 120.042969 39.550781 " fill-opacity="1" fill-rule="nonzero"/><path fill="#000000" d="M 125.097656 46.464844 C 125.097656 46.554688 125.0625 46.632812 124.996094 46.699219 C 124.941406 46.761719 124.867188 46.796875 124.78125 46.796875 L 123.976562 46.796875 C 123.886719 46.796875 123.808594 46.761719 123.742188 46.699219 C 123.6875 46.632812 123.65625 46.550781 123.65625 46.464844 L 123.65625 44.914062 C 123.65625 44.824219 123.6875 44.753906 123.742188 44.699219 C 123.808594 44.632812 123.890625 44.601562 123.976562 44.601562 L 124.78125 44.601562 C 124.871094 44.601562 124.945312 44.632812 124.996094 44.699219 C 125.066406 44.753906 125.097656 44.828125 125.097656 44.914062 Z M 125.097656 46.464844 " fill-opacity="1" fill-rule="nonzero"/><path fill="#000000" d="M 132.996094 46.382812 C 132.996094 46.492188 132.976562 46.578125 132.929688 46.632812 C 132.886719 46.6875 132.796875 46.726562 132.664062 46.75 C 132.386719 46.804688 132.058594 46.847656 131.691406 46.882812 C 131.332031 46.917969 130.960938 46.933594 130.570312 46.933594 C 130 46.933594 129.496094 46.839844 129.046875 46.648438 C 128.613281 46.449219 128.238281 46.175781 127.929688 45.832031 C 127.625 45.476562 127.398438 45.046875 127.242188 44.550781 C 127.085938 44.050781 127.007812 43.492188 127.007812 42.882812 L 127.007812 41.582031 C 127.007812 40.972656 127.085938 40.417969 127.242188 39.917969 C 127.398438 39.417969 127.625 38.996094 127.929688 38.652344 C 128.230469 38.292969 128.605469 38.023438 129.046875 37.832031 C 129.496094 37.632812 130 37.53125 130.570312 37.53125 C 130.960938 37.53125 131.335938 37.550781 131.691406 37.582031 C 132.058594 37.617188 132.382812 37.660156 132.664062 37.71875 C 132.796875 37.738281 132.886719 37.777344 132.929688 37.832031 C 132.976562 37.875 132.996094 37.960938 132.996094 38.082031 L 132.996094 38.683594 C 132.996094 38.773438 132.96875 38.835938 132.910156 38.882812 C 132.855469 38.914062 132.789062 38.933594 132.710938 38.933594 L 132.648438 38.933594 C 132.277344 38.886719 131.941406 38.859375 131.644531 38.847656 C 131.339844 38.828125 130.984375 38.816406 130.570312 38.816406 C 129.902344 38.816406 129.382812 39.042969 129.015625 39.5 C 128.660156 39.941406 128.480469 40.640625 128.480469 41.582031 L 128.480469 42.882812 C 128.480469 43.828125 128.660156 44.527344 129.015625 44.984375 C 129.371094 45.425781 129.890625 45.648438 130.570312 45.648438 C 130.984375 45.648438 131.339844 45.644531 131.644531 45.632812 C 131.945312 45.609375 132.277344 45.578125 132.648438 45.535156 L 132.710938 45.535156 C 132.789062 45.535156 132.855469 45.554688 132.910156 45.597656 C 132.96875 45.632812 132.996094 45.695312 132.996094 45.785156 Z M 132.996094 46.382812 " fill-opacity="1" fill-rule="nonzero"/><path fill="#000000" d="M 142.019531 42.867188 C 142.019531 43.476562 141.941406 44.03125 141.785156 44.53125 C 141.628906 45.03125 141.398438 45.457031 141.082031 45.816406 C 140.769531 46.171875 140.378906 46.449219 139.910156 46.648438 C 139.441406 46.839844 138.902344 46.933594 138.289062 46.933594 C 137.675781 46.933594 137.132812 46.839844 136.664062 46.648438 C 136.207031 46.449219 135.824219 46.171875 135.511719 45.816406 C 135.199219 45.457031 134.964844 45.03125 134.808594 44.53125 C 134.652344 44.03125 134.574219 43.476562 134.574219 42.867188 L 134.574219 41.601562 C 134.574219 40.988281 134.652344 40.433594 134.808594 39.933594 C 134.964844 39.433594 135.195312 39.007812 135.511719 38.652344 C 135.824219 38.292969 136.207031 38.023438 136.664062 37.832031 C 137.132812 37.632812 137.675781 37.53125 138.289062 37.53125 C 138.898438 37.53125 139.441406 37.632812 139.910156 37.832031 C 140.378906 38.023438 140.769531 38.292969 141.082031 38.652344 C 141.394531 39.007812 141.628906 39.433594 141.785156 39.933594 C 141.941406 40.433594 142.019531 40.988281 142.019531 41.601562 Z M 140.546875 41.601562 C 140.546875 40.742188 140.367188 40.066406 140.011719 39.566406 C 139.652344 39.066406 139.078125 38.816406 138.285156 38.816406 C 137.492188 38.816406 136.9375 39.066406 136.578125 39.566406 C 136.21875 40.058594 136.042969 40.734375 136.042969 41.601562 L 136.042969 42.867188 C 136.042969 43.722656 136.214844 44.398438 136.5625 44.898438 C 136.917969 45.398438 137.492188 45.648438 138.285156 45.648438 C 139.078125 45.648438 139.636719 45.402344 139.992188 44.914062 C 140.359375 44.414062 140.546875 43.730469 140.546875 42.867188 Z M 140.546875 41.601562 " fill-opacity="1" fill-rule="nonzero"/><path fill="#000000" d="M 155.074219 46.480469 C 155.074219 46.570312 155.039062 46.648438 154.976562 46.714844 C 154.910156 46.78125 154.828125 46.8125 154.742188 46.8125 L 153.9375 46.8125 C 153.847656 46.8125 153.769531 46.78125 153.703125 46.714844 C 153.636719 46.648438 153.601562 46.570312 153.601562 46.480469 L 153.601562 40.582031 C 153.601562 40.226562 153.5625 39.9375 153.484375 39.71875 C 153.410156 39.484375 153.304688 39.300781 153.167969 39.167969 C 153.035156 39.035156 152.871094 38.9375 152.683594 38.882812 C 152.507812 38.828125 152.304688 38.800781 152.082031 38.800781 C 151.78125 38.800781 151.457031 38.84375 151.109375 38.933594 C 150.777344 39.023438 150.449219 39.128906 150.125 39.253906 C 150.222656 39.617188 150.277344 40.050781 150.277344 40.550781 L 150.277344 46.484375 C 150.277344 46.574219 150.246094 46.652344 150.191406 46.71875 C 150.132812 46.78125 150.0625 46.816406 149.972656 46.816406 L 149.085938 46.816406 C 148.996094 46.816406 148.921875 46.78125 148.871094 46.71875 C 148.828125 46.652344 148.804688 46.570312 148.804688 46.484375 L 148.804688 40.550781 C 148.804688 40.1875 148.773438 39.890625 148.71875 39.667969 C 148.675781 39.4375 148.597656 39.257812 148.484375 39.136719 C 148.375 39.003906 148.242188 38.914062 148.082031 38.867188 C 147.925781 38.824219 147.738281 38.804688 147.511719 38.804688 C 147.214844 38.804688 146.886719 38.867188 146.527344 39.003906 C 146.179688 39.125 145.828125 39.273438 145.472656 39.453125 L 145.472656 46.488281 C 145.472656 46.578125 145.441406 46.652344 145.386719 46.71875 C 145.332031 46.785156 145.257812 46.820312 145.167969 46.820312 L 144.28125 46.820312 C 144.191406 46.820312 144.121094 46.785156 144.0625 46.71875 C 144.019531 46.652344 144 46.574219 144 46.488281 L 144 37.988281 C 144 37.898438 144.027344 37.820312 144.082031 37.753906 C 144.148438 37.691406 144.226562 37.65625 144.316406 37.65625 L 145.15625 37.65625 C 145.246094 37.65625 145.320312 37.691406 145.371094 37.753906 C 145.441406 37.820312 145.472656 37.902344 145.472656 37.988281 L 145.472656 38.304688 C 145.804688 38.09375 146.179688 37.910156 146.59375 37.753906 C 147.003906 37.601562 147.445312 37.523438 147.914062 37.523438 C 148.273438 37.523438 148.585938 37.578125 148.851562 37.691406 C 149.128906 37.789062 149.378906 37.960938 149.589844 38.207031 C 150.054688 37.984375 150.527344 37.820312 150.996094 37.707031 C 151.472656 37.585938 151.933594 37.523438 152.367188 37.523438 C 152.746094 37.523438 153.097656 37.574219 153.421875 37.671875 C 153.753906 37.773438 154.046875 37.945312 154.289062 38.191406 C 154.535156 38.421875 154.726562 38.742188 154.859375 39.140625 C 155.007812 39.527344 155.078125 40.011719 155.078125 40.589844 L 155.078125 46.488281 Z M 155.074219 46.480469 " fill-opacity="1" fill-rule="nonzero"/></svg>