<svg xmlns="http://www.w3.org/2000/svg" xmlns:xlink="http://www.w3.org/1999/xlink" width="220" zoomAndPan="magnify" viewBox="0 0 165 82.499998" height="110" preserveAspectRatio="xMidYMid meet" version="1.0"><defs><clipPath id="8c0ff1d802"><path d="M 0.496094 0 L 164.503906 0 L 164.503906 82.003906 L 0.496094 82.003906 Z M 0.496094 0 " clip-rule="nonzero"/></clipPath><clipPath id="b16bd58629"><path d="M 15.03125 25 L 82 25 L 82 59 L 15.03125 59 Z M 15.03125 25 " clip-rule="nonzero"/></clipPath><clipPath id="8244c174a0"><path d="M 83 24 L 149.960938 24 L 149.960938 58 L 83 58 Z M 83 24 " clip-rule="nonzero"/></clipPath></defs><g clip-path="url(#8c0ff1d802)"><path fill="#ffffff" d="M 0.496094 0 L 164.503906 0 L 164.503906 82.003906 L 0.496094 82.003906 Z M 0.496094 0 " fill-opacity="1" fill-rule="nonzero"/></g><g clip-path="url(#b16bd58629)"><path fill="#5c6276" d="M 45.3125 46.800781 C 45.277344 46.460938 45.277344 46.089844 45.277344 45.710938 C 45.277344 42.566406 46.464844 39.648438 48.78125 39.648438 C 48.964844 39.648438 49.710938 39.722656 49.710938 40.886719 C 49.710938 42.714844 46.953125 45.859375 45.3125 46.792969 M 75.769531 39.667969 C 77.824219 37.160156 79.050781 33.761719 79.050781 30.882812 C 79.050781 27.742188 77.558594 25.230469 73.90625 25.207031 C 72.785156 25.207031 68.421875 27.523438 63.617188 30.476562 C 63.617188 29.058594 63.726562 27.558594 63.761719 25.953125 C 63.761719 25.507812 63.503906 25.320312 63.054688 25.320312 C 62.570312 25.28125 59.328125 25.617188 58.765625 25.730469 C 58.171875 25.878906 57.945312 26.175781 57.945312 26.476562 L 57.945312 34.117188 C 56.234375 35.273438 54.589844 36.433594 53.175781 37.441406 C 52.917969 37.605469 52.730469 37.855469 52.640625 38.144531 C 52.027344 37.300781 51.039062 36.804688 49.785156 36.804688 C 43.40625 36.804688 40.347656 43.085938 40.347656 48.808594 C 40.347656 49.226562 40.371094 49.648438 40.417969 50.066406 L 40.242188 50.304688 C 39.753906 50.976562 39.265625 51.238281 38.785156 51.238281 C 38.300781 51.238281 37.816406 50.9375 37.367188 50.527344 C 37.667969 49.109375 37.816406 47.664062 37.816406 46.214844 C 37.816406 41.953125 36.433594 38.101562 33.710938 38.101562 C 32.21875 38.101562 31.660156 39.296875 31.660156 40.9375 C 31.660156 44.648438 32.816406 48.265625 34.492188 50.585938 C 33.703125 51.707031 32.589844 52.683594 31.355469 52.683594 C 30.386719 52.683594 29.304688 52.078125 28.1875 50.398438 C 28.445312 50.136719 29.046875 47.59375 29.046875 45.988281 C 29.046875 44.339844 28.113281 42.324219 26.730469 42.324219 C 25.207031 42.324219 24.535156 44.453125 24.457031 46.621094 C 24.386719 49.050781 25.101562 50.652344 25.101562 50.652344 C 24.6875 51.511719 23.011719 52.597656 22.191406 52.597656 C 20.960938 52.597656 20.140625 51.214844 20.140625 47.699219 C 20.140625 44.929688 20.476562 41.605469 20.476562 40.714844 C 20.476562 40.117188 19.988281 40.003906 18.980469 40.003906 C 18.347656 40.003906 17.53125 40.042969 16.484375 40.042969 C 15.441406 40.042969 15.441406 41.242188 15.441406 41.242188 C 15.40625 42.332031 15.03125 44.871094 15.03125 48.160156 C 15.03125 51.519531 15.40625 57.617188 20.328125 57.617188 C 23.199219 57.617188 25.472656 54.511719 25.734375 54.027344 C 25.78125 53.910156 25.902344 53.835938 26.03125 53.839844 C 26.847656 53.839844 27.636719 57.503906 31.363281 57.503906 C 33.902344 57.503906 35.6875 55.449219 36.738281 52.648438 C 37.242188 52.953125 37.820312 53.117188 38.410156 53.128906 C 39.222656 53.128906 40.039062 52.796875 40.816406 52.066406 C 41.789062 55.363281 44.195312 57.878906 47.320312 57.878906 C 50.601562 57.878906 54.480469 53.988281 56.417969 50.773438 C 56.488281 50.636719 56.515625 50.480469 56.496094 50.324219 C 56.496094 49.726562 56.234375 48.832031 55.894531 48.832031 C 55.824219 48.824219 55.757812 48.851562 55.710938 48.90625 C 55.1875 49.617188 53.359375 52.980469 49.96875 52.980469 C 47.769531 52.980469 46.351562 51.183594 45.679688 48.90625 C 50.230469 46.101562 53.324219 42.847656 53.324219 40.453125 C 53.324219 40.207031 53.304688 39.964844 53.269531 39.722656 C 53.3125 39.734375 53.355469 39.742188 53.398438 39.742188 C 53.691406 39.71875 53.976562 39.617188 54.21875 39.445312 L 57.988281 36.828125 L 57.988281 49.921875 C 57.988281 52.203125 57.988281 55.195312 57.945312 57.363281 C 58.023438 58.105469 58.617188 58.105469 58.617188 58.105469 C 58.617188 58.105469 61.378906 58.144531 63.242188 58.144531 C 63.761719 58.144531 63.761719 57.289062 63.761719 57.289062 C 63.726562 49.097656 63.578125 43.714844 63.578125 37.730469 L 63.578125 33.082031 C 66.523438 31.207031 68.984375 29.828125 70.066406 29.828125 C 72.226562 29.828125 73.945312 31.585938 73.945312 34.191406 C 73.945312 35.5 73.53125 37 72.527344 38.566406 C 71.789062 38.425781 71.039062 38.351562 70.285156 38.347656 C 67.007812 38.347656 65.664062 39.546875 65.664062 40.78125 C 65.664062 42.054688 67.046875 43.324219 69.132812 43.324219 C 70.542969 43.308594 71.917969 42.878906 73.085938 42.085938 C 74.949219 43.699219 75.695312 46.5 75.695312 49.230469 C 75.695312 52.96875 74.171875 55.324219 72.753906 55.324219 C 71.074219 55.289062 69.765625 52.671875 69.433594 51.996094 C 69.429688 51.96875 69.414062 51.941406 69.390625 51.921875 C 69.132812 51.359375 68.722656 50.765625 67.976562 50.691406 C 67.117188 50.726562 64.929688 51.960938 64.929688 53.195312 C 64.929688 55.289062 69.179688 58.089844 72.199219 58.089844 C 77.273438 58.089844 81.96875 54.839844 81.96875 48.671875 C 81.96875 44.257812 79.097656 41.230469 75.78125 39.660156 " fill-opacity="1" fill-rule="nonzero"/></g><g clip-path="url(#8244c174a0)"><path fill="#5c6276" d="M 138.597656 45.695312 C 138.597656 42.554688 139.792969 39.640625 142.105469 39.640625 C 142.289062 39.640625 143.035156 39.714844 143.035156 40.875 C 143.035156 42.703125 140.277344 45.847656 138.636719 46.777344 C 138.605469 46.417969 138.589844 46.050781 138.597656 45.6875 M 127.785156 42.671875 C 127.785156 42.671875 127.710938 42.671875 127.710938 42.484375 C 127.710938 42.484375 127.671875 34.191406 127.671875 32.007812 C 127.671875 31.671875 127.710938 28.269531 129.054688 28.269531 C 129.726562 28.269531 130.65625 29.65625 130.65625 32.085938 C 130.65625 34.402344 129.167969 40.984375 127.972656 42.476562 C 127.972656 42.476562 127.859375 42.664062 127.785156 42.664062 M 119.183594 52.582031 C 118.066406 52.582031 117.285156 51.796875 117.285156 50.261719 C 117.285156 47.945312 117.359375 44.6875 117.5 41.476562 L 122.164062 39.949219 C 123.019531 39.6875 123.019531 39.203125 123.019531 39.203125 C 123.019531 39.203125 123.039062 39.027344 123.066406 38.765625 C 123.066406 40.054688 123.054688 41.382812 123.054688 42.671875 C 123.054688 45.78125 123.082031 48.59375 123.089844 50.015625 C 121.785156 51.75 120.332031 52.582031 119.171875 52.582031 M 102.515625 45.710938 C 102.515625 42.566406 103.707031 39.652344 106.023438 39.652344 C 106.207031 39.652344 106.953125 39.726562 106.953125 40.886719 C 106.953125 42.71875 104.195312 45.859375 102.558594 46.792969 C 102.523438 46.429688 102.511719 46.066406 102.515625 45.699219 M 87.9375 45.71875 C 87.9375 42.574219 89.132812 39.664062 91.441406 39.664062 C 91.628906 39.664062 92.375 39.734375 92.375 40.894531 C 92.375 42.726562 89.617188 45.867188 87.972656 46.800781 C 87.941406 46.4375 87.929688 46.074219 87.9375 45.710938 M 149.226562 48.832031 C 149.15625 48.824219 149.085938 48.851562 149.039062 48.90625 C 148.519531 49.605469 146.695312 52.980469 143.296875 52.980469 C 141.097656 52.980469 139.679688 51.183594 139.007812 48.90625 C 143.558594 46.101562 146.652344 42.847656 146.652344 40.453125 C 146.652344 38.25 145.273438 36.789062 143.109375 36.789062 C 136.734375 36.789062 133.679688 43.070312 133.679688 48.792969 C 133.679688 49.183594 133.699219 49.574219 133.738281 49.964844 C 132.621094 51.507812 131.105469 53.207031 130.023438 53.207031 C 128.828125 53.207031 128.234375 51.785156 128.234375 45.988281 C 133.414062 38.546875 133.675781 33.425781 133.675781 30.472656 C 133.675781 28.5625 132.816406 24.453125 130.769531 24.453125 C 128.976562 24.453125 123.195312 29.125 123.121094 32.152344 C 123.101562 33.394531 123.085938 35.078125 123.070312 36.933594 C 122.980469 36.832031 122.847656 36.777344 122.714844 36.789062 C 122.574219 36.796875 122.4375 36.820312 122.304688 36.863281 C 122.304688 36.863281 120.027344 37.6875 117.644531 38.511719 C 117.859375 34.023438 118.125 30.246094 118.125 30.136719 C 118.125 29.761719 117.9375 29.386719 117.417969 29.386719 C 117.117188 29.386719 114.660156 30.175781 113.578125 30.695312 C 112.980469 31.144531 112.609375 35.667969 112.417969 40.378906 C 112.328125 40.429688 112.226562 40.46875 112.125 40.492188 C 111.890625 40.5625 111.726562 40.773438 111.710938 41.015625 C 111.710938 41.015625 111.636719 42.585938 111.636719 43.070312 C 111.636719 43.335938 111.710938 43.40625 111.824219 43.40625 C 111.976562 43.367188 112.125 43.316406 112.273438 43.257812 C 112.207031 45.984375 112.167969 48.53125 112.164062 50.035156 C 111.238281 51.273438 109.617188 52.980469 107.199219 52.980469 C 105.003906 52.980469 103.582031 51.183594 102.914062 48.90625 C 107.464844 46.09375 110.570312 42.839844 110.570312 40.445312 C 110.570312 38.238281 109.191406 36.78125 107.027344 36.78125 C 100.648438 36.78125 97.589844 43.0625 97.589844 48.785156 C 97.589844 49.175781 97.609375 49.5625 97.652344 49.949219 C 96.738281 51.195312 95.101562 52.96875 92.644531 52.96875 C 90.445312 52.96875 89.027344 51.175781 88.355469 48.894531 C 92.886719 46.09375 95.988281 42.839844 95.988281 40.445312 C 95.988281 38.238281 94.609375 36.78125 92.445312 36.78125 C 86.066406 36.78125 83.007812 43.0625 83.007812 48.785156 C 83.007812 53.53125 85.878906 57.871094 89.972656 57.871094 C 92.773438 57.871094 96 55.035156 98.09375 52.21875 C 99.097656 55.4375 101.480469 57.871094 104.554688 57.871094 C 107.167969 57.871094 110.171875 55.390625 112.261719 52.757812 C 112.636719 56.464844 114.003906 57.832031 115.703125 57.832031 C 118.019531 57.832031 121.019531 55.324219 123.253906 52.53125 C 123.796875 55.617188 125.609375 57.644531 127.855469 57.644531 C 129.570312 57.644531 132.589844 54.105469 134.167969 52.105469 C 135.148438 55.378906 137.546875 57.871094 140.65625 57.871094 C 143.9375 57.871094 147.816406 53.980469 149.753906 50.765625 C 149.824219 50.625 149.847656 50.46875 149.832031 50.316406 C 149.832031 49.714844 149.570312 48.824219 149.230469 48.824219 " fill-opacity="1" fill-rule="nonzero"/></g></svg>