<?xml version="1.0" standalone="no"?>
<!DOCTYPE svg PUBLIC "-//W3C//DTD SVG 20010904//EN"
 "http://www.w3.org/TR/2001/REC-SVG-20010904/DTD/svg10.dtd">
<svg version="1.0" xmlns="http://www.w3.org/2000/svg"
 width="700.000000pt" height="700.000000pt" viewBox="0 0 700.000000 700.000000"
 preserveAspectRatio="xMidYMid meet">
<metadata>
Created by potrace 1.14, written by Peter Selinger 2001-2017
</metadata>
<g transform="translate(0.000000,700.000000) scale(0.100000,-0.100000)"
fill="#000000" stroke="none">
<path d="M518 5496 c-61 -21 -83 -77 -66 -165 5 -25 11 -57 14 -71 2 -14 9
-45 14 -70 6 -25 13 -54 15 -65 37 -165 87 -339 145 -500 34 -94 133 -295 185
-376 273 -424 663 -617 1330 -655 209 -13 698 -6 747 10 7 3 42 7 78 11 65 6
180 27 255 47 22 5 47 11 55 13 43 8 177 59 251 94 220 106 387 255 531 477
50 76 147 273 168 339 7 22 16 45 20 50 12 15 86 260 119 394 43 171 73 321
73 364 -1 45 -31 92 -69 104 -16 6 -303 9 -673 9 -602 -1 -647 -2 -671 -19
-44 -30 -49 -47 -74 -287 -4 -30 -8 -68 -10 -85 -1 -16 -6 -59 -10 -95 -3 -36
-8 -81 -11 -101 -2 -20 -6 -56 -9 -80 -2 -24 -8 -66 -12 -94 -4 -27 -7 -57 -8
-65 -1 -14 -11 -89 -20 -150 -68 -462 -164 -674 -318 -705 -10 -2 -28 -7 -39
-10 -10 -4 -49 -7 -85 -7 -141 -1 -237 63 -300 199 -32 70 -88 259 -98 333 -3
19 -7 46 -10 60 -2 14 -7 36 -10 50 -2 14 -7 45 -10 70 -4 25 -8 56 -10 70 -6
41 -15 102 -20 145 -2 22 -11 96 -19 165 -8 69 -18 152 -21 185 -3 33 -8 76
-10 95 -2 19 -9 82 -15 140 -12 114 -16 123 -55 160 l-27 25 -644 1 c-425 0
-655 -4 -676 -10z"/>
<path d="M4730 5503 c-43 -14 -65 -31 -79 -64 -14 -31 -16 -110 -16 -675 0
-593 1 -642 18 -667 33 -51 56 -59 212 -73 39 -3 84 -8 100 -10 17 -2 55 -6
85 -9 30 -3 71 -8 90 -10 83 -9 147 -17 170 -20 14 -2 50 -6 80 -10 30 -4 66
-8 80 -10 230 -33 222 -31 370 -61 359 -72 490 -174 493 -381 1 -73 -9 -126
-30 -172 -19 -38 -97 -121 -116 -121 -6 0 -18 -6 -26 -14 -34 -29 -240 -90
-391 -115 -36 -6 -76 -13 -90 -15 -45 -8 -234 -35 -290 -42 -30 -3 -62 -8 -70
-9 -8 -1 -49 -6 -90 -10 -41 -4 -83 -9 -93 -11 -10 -2 -53 -6 -95 -9 -42 -4
-90 -9 -107 -11 -39 -5 -120 -14 -168 -18 -57 -6 -91 -23 -112 -59 -19 -31
-20 -60 -20 -672 -1 -591 0 -643 16 -676 20 -40 66 -68 107 -64 52 5 249 47
399 86 763 197 1146 510 1307 1069 13 47 27 103 30 124 4 22 8 48 11 60 9 41
16 88 30 201 20 165 26 599 12 805 -44 619 -233 1003 -622 1265 -124 83 -342
184 -530 245 -33 11 -73 24 -90 30 -36 11 -219 59 -255 66 -14 3 -41 9 -60 14
-36 9 -241 51 -244 49 0 0 -8 -3 -16 -6z"/>
<path d="M2378 4893 c-14 -9 -36 -33 -47 -53 -18 -33 -20 -53 -20 -246 0 -243
5 -263 78 -301 71 -36 145 -12 179 59 18 39 20 62 18 254 -1 204 -2 212 -25
245 -13 19 -35 40 -49 47 -36 17 -102 15 -134 -5z"/>
<path d="M2297 3414 c-1 -1 -60 -5 -132 -8 -71 -4 -146 -9 -165 -11 -19 -3
-55 -7 -80 -10 -408 -51 -707 -186 -929 -420 -188 -199 -333 -486 -441 -875
-18 -63 -36 -131 -40 -150 -37 -169 -60 -281 -64 -309 -6 -45 14 -92 50 -116
28 -19 53 -20 669 -21 611 -1 642 -1 681 18 57 26 62 41 79 213 3 33 8 76 10
95 2 19 9 82 15 140 6 58 13 116 15 130 2 14 7 53 10 87 3 34 7 70 9 80 2 10
7 43 11 73 43 338 92 556 152 675 50 98 120 159 208 179 98 24 246 -5 306 -58
106 -93 183 -335 233 -726 4 -25 8 -56 10 -70 3 -14 7 -47 10 -75 3 -27 7 -66
10 -85 3 -19 7 -60 11 -90 3 -30 7 -68 9 -85 6 -49 21 -192 31 -290 14 -142
22 -164 64 -192 24 -17 74 -18 671 -19 381 0 656 3 673 9 40 13 70 61 69 110
-3 122 -150 671 -223 832 -10 22 -32 71 -48 109 -17 38 -54 108 -83 155 -270
453 -666 657 -1353 697 -98 6 -443 12 -448 8z"/>
</g>
</svg>
