<svg id="Layer_1" data-name="Layer 1" xmlns="http://www.w3.org/2000/svg" viewBox="0 0 424.66 131.2"><defs><style>.cls-1{fill:#fff;}</style></defs><path id="uxday" class="cls-1" d="M127.46,0H87.06a3.8,3.8,0,0,0-3.8,3.4c-4.4,42.7-6.2,52.2-17.6,52.2s-13.2-9.4-17.6-52.2A3.8,3.8,0,0,0,44.26,0H3.86A3.87,3.87,0,0,0,.06,4.5c8.7,46.7,25.5,58.3,65.6,58.3s56.9-11.6,65.6-58.3A3.87,3.87,0,0,0,127.46,0ZM65.66,68.4c-40.1,0-56.9,11.6-65.6,58.3a3.87,3.87,0,0,0,3.8,4.5h40.4a3.8,3.8,0,0,0,3.8-3.4c4.4-42.7,6.2-52.2,17.6-52.2s13.2,9.4,17.6,52.2a3.8,3.8,0,0,0,3.8,3.4h40.4a3.87,3.87,0,0,0,3.8-4.5C122.56,80,105.66,68.4,65.66,68.4Zm76-68.4a3.87,3.87,0,0,0-4.5,3.8V44.2a3.8,3.8,0,0,0,3.4,3.8c42.7,4.4,52.2,6.2,52.2,17.6s-9.4,13.2-52.2,17.6a3.8,3.8,0,0,0-3.4,3.8v40.4a3.87,3.87,0,0,0,4.5,3.8c46.7-8.7,58.3-25.5,58.3-65.6S188.36,8.7,141.66,0Zm-76,40.3a4.48,4.48,0,0,0,4.5-4.5v-12a4.5,4.5,0,1,0-9,0v12A4.55,4.55,0,0,0,65.66,40.3Zm175.9,43a17.73,17.73,0,0,1-13.4,5.7c-8.3,0-12.3-4.6-12.3-11.9v-27h10v23c0,5.3,2.7,7,7,7a11.1,11.1,0,0,0,8.6-4.3V50.1h10V88h-10V83.3Zm34.8-8-8.7,12.8h-11.1L270,68.6l-12.6-18.5h11.2l7.9,11.7,7.8-11.7h11.2l-12.9,18.5,13.6,19.5H285Zm53.1,12.8V82.4a16.12,16.12,0,0,1-12.8,6.6c-9.9,0-16.9-7.5-16.9-19.9,0-12.1,6.9-20,16.9-20a15.84,15.84,0,0,1,12.8,6.7V35.7h5.9V88.1Zm0-10.3V60.6a14.23,14.23,0,0,0-11.4-6.1c-7.6,0-12.2,6.3-12.2,14.7s4.6,14.6,12.2,14.6A14.26,14.26,0,0,0,329.46,77.8Zm45.2,10.3V82.4a16.12,16.12,0,0,1-12.8,6.6C352,89,345,81.5,345,69.1c0-12.1,6.9-20,16.9-20a15.52,15.52,0,0,1,12.7,6.7V50.1h6V88h-5.9Zm0-10.3V60.6a14.23,14.23,0,0,0-11.4-6.1c-7.6,0-12.2,6.3-12.2,14.7s4.6,14.6,12.2,14.6C368,83.7,372.56,81.1,374.66,77.8Zm16.5,19.8a9.06,9.06,0,0,0,3.2.6c2.6,0,4.3-.9,5.7-4l2.5-5.7-15.9-38.4h6.4l12.6,31.1,12.6-31.1h6.4l-19,45.6c-2.3,5.5-6.1,7.6-11.2,7.7a14.9,14.9,0,0,1-4.3-.6Z"/></svg>