<?xml version="1.0" encoding="UTF-8"?>
<svg id="Livello_1" data-name="Livello 1" xmlns="http://www.w3.org/2000/svg" viewBox="0 0 40 40">
  <defs>
    <style>
      .cls-1 {
        stroke-width: 0px;
      }
    </style>
  </defs>
  <path class="cls-1" d="m29.45,16.52c0-4.4-2.88-5.69-2.88-5.69-1.45-.67-3.95-.95-6.54-.97h-.06c-2.59.02-5.09.3-6.54.97,0,0-2.88,1.29-2.88,5.69,0,1.01-.02,2.21.01,3.49.1,4.3.79,8.54,4.77,9.59,1.83.49,3.41.59,4.68.52,2.3-.13,3.59-.82,3.59-.82l-.08-1.67s-1.64.52-3.49.45c-1.83-.06-3.76-.2-4.05-2.44-.03-.2-.04-.41-.04-.63,0,0,1.79.44,4.07.54,1.39.06,2.69-.08,4.02-.24,2.54-.3,4.75-1.87,5.03-3.3.44-2.25.4-5.5.4-5.5Zm-3.4,5.67h-2.11v-5.17c0-1.09-.46-1.64-1.38-1.64-1.01,0-1.52.66-1.52,1.95v2.83h-2.1v-2.83c0-1.3-.51-1.95-1.52-1.95-.92,0-1.38.55-1.38,1.64v5.17h-2.11v-5.33c0-1.09.28-1.95.83-2.59.57-.64,1.33-.97,2.26-.97,1.08,0,1.9.41,2.44,1.24l.53.88.53-.88c.54-.83,1.36-1.24,2.44-1.24.93,0,1.68.33,2.26.97.56.64.83,1.5.83,2.59v5.33Z"/>
</svg>