<svg xmlns="http://www.w3.org/2000/svg" xmlns:xlink="http://www.w3.org/1999/xlink" width="220" zoomAndPan="magnify" viewBox="0 0 165 82.499998" height="110" preserveAspectRatio="xMidYMid meet" version="1.0"><defs><clipPath id="711a0446f5"><path d="M 0.496094 0 L 164.503906 0 L 164.503906 82.003906 L 0.496094 82.003906 Z M 0.496094 0 " clip-rule="nonzero"/></clipPath></defs><g clip-path="url(#711a0446f5)"><path fill="#ffffff" d="M 0.496094 0 L 164.503906 0 L 164.503906 82.003906 L 0.496094 82.003906 Z M 0.496094 0 " fill-opacity="1" fill-rule="nonzero"/><path fill="#ffffff" d="M 0.496094 0 L 164.503906 0 L 164.503906 82.003906 L 0.496094 82.003906 Z M 0.496094 0 " fill-opacity="1" fill-rule="nonzero"/></g><path fill="#c5003e" d="M 32.085938 43.722656 C 32.085938 39.128906 35.324219 35.898438 39.808594 35.898438 C 41.925781 35.898438 43.917969 37.015625 45.160156 38.753906 C 46.40625 37.015625 48.398438 35.898438 50.515625 35.898438 C 55 35.898438 58.238281 39.128906 58.238281 43.722656 L 58.238281 53.042969 L 53.382812 53.042969 L 53.382812 43.722656 C 53.382812 41.984375 52.136719 40.617188 50.515625 40.617188 C 48.898438 40.617188 47.652344 41.859375 47.652344 43.722656 L 47.652344 53.042969 L 42.796875 53.042969 L 42.796875 43.722656 C 42.796875 41.984375 41.550781 40.617188 39.933594 40.617188 C 38.3125 40.617188 37.066406 41.859375 37.066406 43.722656 L 37.066406 53.042969 L 32.210938 53.042969 L 32.210938 43.722656 Z M 32.085938 43.722656 " fill-opacity="1" fill-rule="evenodd"/><path fill="#c5003e" d="M 73.429688 44.59375 C 73.429688 42.480469 71.6875 40.742188 69.570312 40.742188 C 67.453125 40.742188 65.710938 42.480469 65.710938 44.59375 C 65.710938 46.707031 67.453125 48.445312 69.445312 48.445312 C 71.5625 48.445312 73.304688 46.832031 73.304688 44.71875 Z M 78.414062 44.59375 C 78.414062 49.441406 74.550781 53.292969 70.191406 53.292969 C 68.699219 53.292969 67.203125 52.792969 65.835938 51.925781 L 65.835938 60.25 L 60.976562 60.25 L 60.976562 36.269531 L 65.210938 36.269531 L 65.460938 37.636719 C 66.832031 36.519531 68.449219 36.019531 70.070312 36.019531 C 74.300781 36.019531 78.289062 39.871094 78.289062 44.71875 Z M 78.414062 44.59375 " fill-opacity="1" fill-rule="evenodd"/><path fill="#c5003e" d="M 80.902344 53.042969 L 85.757812 53.042969 L 85.757812 29.1875 L 80.902344 29.1875 Z M 80.902344 53.042969 " fill-opacity="1" fill-rule="evenodd"/><path fill="#c5003e" d="M 88.871094 53.042969 L 93.855469 53.042969 L 93.855469 36.269531 L 88.871094 36.269531 Z M 88.625 31.796875 C 88.625 30.179688 89.871094 28.9375 91.488281 28.9375 C 93.105469 28.9375 94.351562 30.179688 94.351562 31.796875 C 94.351562 33.410156 93.105469 34.652344 91.488281 34.652344 C 89.871094 34.652344 88.625 33.410156 88.625 31.796875 Z M 88.625 31.796875 " fill-opacity="1" fill-rule="evenodd"/><path fill="#c5003e" d="M 102.324219 36.269531 L 104.9375 36.269531 L 104.9375 40.992188 L 102.324219 40.992188 L 102.324219 53.042969 L 97.464844 53.042969 L 97.464844 40.992188 L 95.847656 40.992188 L 95.847656 36.269531 L 97.464844 36.269531 C 97.464844 31.921875 100.578125 28.9375 104.9375 28.9375 L 104.9375 33.785156 C 103.441406 33.785156 102.324219 34.777344 102.324219 36.269531 Z M 102.324219 36.269531 " fill-opacity="1" fill-rule="evenodd"/><path fill="#c5003e" d="M 118.511719 44.59375 C 118.511719 42.480469 116.769531 40.742188 114.652344 40.742188 C 112.535156 40.742188 110.789062 42.480469 110.789062 44.59375 C 110.789062 46.707031 112.535156 48.445312 114.652344 48.445312 C 116.769531 48.445312 118.511719 46.707031 118.511719 44.59375 Z M 105.933594 44.59375 C 105.933594 39.75 109.792969 35.773438 114.652344 35.648438 C 119.507812 35.648438 123.492188 39.5 123.617188 44.34375 C 123.617188 49.191406 119.757812 53.167969 114.898438 53.292969 L 114.777344 53.292969 C 109.917969 53.292969 106.058594 49.5625 105.933594 44.71875 Z M 105.933594 44.59375 " fill-opacity="1" fill-rule="evenodd"/><path fill="#c5003e" d="M 125.734375 43.722656 C 125.734375 39.128906 128.972656 35.898438 133.578125 35.898438 C 138.1875 35.898438 141.425781 39.128906 141.425781 43.722656 L 141.425781 53.042969 L 136.570312 53.042969 L 136.570312 43.722656 C 136.570312 42.109375 135.199219 40.742188 133.578125 40.742188 C 131.960938 40.742188 130.589844 42.109375 130.589844 43.722656 L 130.589844 53.042969 L 125.734375 53.042969 Z M 125.734375 43.722656 " fill-opacity="1" fill-rule="evenodd"/><path fill="#c5003e" d="M 13.78125 42.980469 C 13.15625 43.722656 12.535156 44.59375 11.910156 45.464844 C 11.910156 46.210938 12.160156 46.953125 12.410156 47.574219 C 13.28125 46.085938 14.277344 44.59375 15.273438 43.226562 C 16.894531 40.992188 18.386719 38.753906 18.511719 37.261719 C 18.511719 36.765625 18.511719 36.394531 18.511719 36.019531 C 18.136719 36.019531 17.765625 36.144531 17.515625 36.269531 C 17.765625 37.882812 16.023438 40.246094 13.90625 42.855469 Z M 13.78125 42.980469 " fill-opacity="1" fill-rule="evenodd"/><path fill="#c5003e" d="M 16.769531 44.964844 C 16.769531 44.84375 16.769531 44.71875 16.769531 44.59375 C 16.769531 42.980469 17.765625 41.613281 19.257812 40.992188 C 20.132812 39.375 20.753906 38.007812 20.628906 36.890625 C 20.628906 36.519531 20.628906 36.269531 20.503906 35.898438 L 20.007812 35.898438 C 19.757812 35.898438 19.632812 35.898438 19.382812 35.898438 C 19.382812 36.269531 19.507812 36.765625 19.382812 37.140625 C 19.257812 39.003906 17.640625 41.238281 15.898438 43.601562 C 14.777344 45.214844 13.65625 46.832031 12.785156 48.570312 C 13.15625 49.191406 13.65625 49.9375 14.152344 50.433594 C 14.527344 48.570312 15.648438 46.707031 16.769531 44.84375 Z M 16.769531 44.964844 " fill-opacity="1" fill-rule="evenodd"/><path fill="#c5003e" d="M 22.496094 41.238281 C 22.996094 41.488281 23.367188 41.859375 23.617188 42.234375 C 24.242188 40.617188 24.738281 39.003906 24.488281 37.511719 C 24.117188 37.261719 23.742188 37.015625 23.367188 36.765625 C 23.492188 38.132812 23.121094 39.625 22.371094 41.238281 Z M 22.496094 41.238281 " fill-opacity="1" fill-rule="evenodd"/><path fill="#c5003e" d="M 20.628906 48.320312 C 20.132812 48.320312 19.632812 48.320312 19.136719 48.074219 C 18.386719 49.8125 17.765625 51.425781 17.890625 52.917969 C 18.511719 53.167969 19.257812 53.292969 19.882812 53.292969 C 19.882812 51.550781 20.378906 49.9375 21.128906 48.445312 C 21.003906 48.445312 20.878906 48.445312 20.753906 48.445312 Z M 20.628906 48.320312 " fill-opacity="1" fill-rule="evenodd"/><path fill="#c5003e" d="M 25.238281 36.144531 C 25.859375 38.507812 25.238281 40.867188 24.242188 43.351562 C 24.863281 45.214844 23.992188 47.203125 22.125 48.074219 C 21.375 49.8125 20.753906 51.550781 20.753906 53.167969 C 22.25 52.917969 23.742188 52.296875 24.863281 51.304688 L 25.484375 52.917969 L 29.472656 52.917969 L 29.472656 36.144531 Z M 25.238281 36.144531 " fill-opacity="1" fill-rule="evenodd"/><path fill="#c5003e" d="M 13.03125 42.359375 C 14.777344 40.121094 16.519531 37.882812 16.519531 36.640625 C 13.78125 38.007812 12.035156 40.742188 11.789062 43.847656 C 12.160156 43.351562 12.535156 42.855469 13.03125 42.359375 Z M 13.03125 42.359375 " fill-opacity="1" fill-rule="evenodd"/><path fill="#c5003e" d="M 21.5 36.765625 C 21.5 37.882812 21.128906 39.25 20.378906 40.742188 L 20.628906 40.742188 C 21.003906 40.742188 21.375 40.742188 21.75 40.867188 C 22.496094 39.128906 22.871094 37.636719 22.496094 36.269531 C 22.125 36.144531 21.75 36.019531 21.5 36.019531 C 21.5 36.269531 21.5 36.519531 21.5 36.765625 Z M 21.5 36.765625 " fill-opacity="1" fill-rule="evenodd"/><path fill="#c5003e" d="M 18.261719 47.574219 C 17.765625 47.203125 17.390625 46.707031 17.140625 46.210938 C 16.144531 47.949219 15.273438 49.6875 15.023438 51.304688 C 15.648438 51.800781 16.269531 52.171875 16.894531 52.546875 C 16.894531 50.929688 17.515625 49.316406 18.261719 47.574219 Z M 18.261719 47.574219 " fill-opacity="1" fill-rule="evenodd"/><path fill="#c5003e" d="M 153.007812 32.046875 L 150.390625 29.4375 L 150.265625 29.4375 C 149.894531 28.9375 149.894531 28.316406 150.265625 28.070312 L 153.007812 25.335938 C 153.753906 24.589844 153.753906 23.222656 153.007812 22.476562 C 152.257812 21.734375 150.890625 21.734375 150.144531 22.476562 L 147.527344 25.210938 C 147.152344 25.585938 146.65625 25.585938 146.28125 25.210938 L 146.15625 25.210938 C 146.15625 25.085938 143.542969 22.476562 143.542969 22.476562 C 142.796875 21.734375 141.425781 21.734375 140.679688 22.476562 C 139.929688 23.222656 139.929688 24.589844 140.679688 25.335938 L 143.417969 28.070312 C 143.792969 28.441406 143.792969 28.9375 143.417969 29.3125 L 140.679688 32.046875 C 139.929688 32.789062 139.929688 34.15625 140.679688 34.902344 C 141.425781 35.648438 142.796875 35.648438 143.542969 34.902344 L 146.28125 32.167969 C 146.65625 31.796875 147.152344 31.796875 147.527344 32.167969 L 150.265625 34.902344 C 151.015625 35.648438 152.382812 35.648438 153.132812 34.902344 C 153.878906 34.15625 153.878906 32.789062 153.132812 32.046875 Z M 153.007812 32.046875 " fill-opacity="1" fill-rule="nonzero"/></svg>