<svg xmlns="http://www.w3.org/2000/svg" xmlns:xlink="http://www.w3.org/1999/xlink" width="220" zoomAndPan="magnify" viewBox="0 0 165 82.499998" height="110" preserveAspectRatio="xMidYMid meet" version="1.0"><defs><clipPath id="4a8040a0fd"><path d="M 0.496094 0 L 164.503906 0 L 164.503906 82.003906 L 0.496094 82.003906 Z M 0.496094 0 " clip-rule="nonzero"/></clipPath></defs><g clip-path="url(#4a8040a0fd)"><path fill="#ffffff" d="M 0.496094 0 L 164.503906 0 L 164.503906 89.457031 L 0.496094 89.457031 Z M 0.496094 0 " fill-opacity="1" fill-rule="nonzero"/><path fill="#ffffff" d="M 0.496094 0 L 164.503906 0 L 164.503906 82.003906 L 0.496094 82.003906 Z M 0.496094 0 " fill-opacity="1" fill-rule="nonzero"/><path fill="#ffffff" d="M 0.496094 0 L 164.503906 0 L 164.503906 82.003906 L 0.496094 82.003906 Z M 0.496094 0 " fill-opacity="1" fill-rule="nonzero"/></g><path fill="#002432" d="M 48.914062 61.890625 L 45 72.503906 L 48.191406 72.503906 L 48.816406 70.570312 L 52.402344 70.570312 L 53.042969 72.503906 L 56.453125 72.503906 L 52.351562 61.304688 Z M 49.601562 68.132812 L 50.570312 65.097656 L 51.589844 68.132812 Z M 60.945312 61.304688 C 60.039062 61.304688 58.347656 61.402344 57.472656 61.496094 L 57.472656 72.503906 L 60.757812 72.503906 L 60.757812 68.871094 L 61.117188 68.871094 C 64.355469 68.871094 65.921875 67.296875 65.921875 65 C 65.925781 62.878906 64.5 61.304688 60.945312 61.304688 Z M 61.179688 66.511719 L 60.757812 66.511719 L 60.757812 63.664062 L 61.339844 63.664062 C 62.074219 63.664062 62.636719 64.058594 62.636719 65.015625 C 62.640625 65.945312 62.089844 66.511719 61.179688 66.511719 Z M 76.019531 64.78125 C 76.019531 62.816406 74.4375 61.304688 70.882812 61.304688 C 69.976562 61.304688 68.285156 61.402344 67.410156 61.496094 L 67.410156 72.503906 L 70.695312 72.503906 L 70.695312 68.695312 L 71.226562 68.695312 L 72.980469 72.503906 L 76.535156 72.503906 L 74.234375 67.957031 C 75.441406 67.21875 76.019531 66.039062 76.019531 64.78125 Z M 71.636719 66.480469 C 71.527344 66.496094 71.402344 66.515625 71.277344 66.515625 L 70.699219 66.515625 L 70.699219 63.667969 L 71.4375 63.667969 C 72.265625 63.667969 72.734375 64.21875 72.734375 65.035156 C 72.734375 65.726562 72.402344 66.335938 71.636719 66.480469 Z M 83.03125 61.304688 C 79.492188 61.304688 77.363281 63.429688 77.363281 67 C 77.363281 70.570312 79.492188 72.691406 83.03125 72.691406 C 86.566406 72.691406 88.695312 70.570312 88.695312 67 C 88.695312 63.429688 86.566406 61.304688 83.03125 61.304688 Z M 83.03125 69.925781 C 81.574219 69.925781 80.699219 68.839844 80.699219 67 C 80.699219 65.15625 81.574219 64.074219 83.03125 64.074219 C 84.484375 64.074219 85.359375 65.15625 85.359375 67 C 85.363281 68.839844 84.488281 69.925781 83.03125 69.925781 Z M 93.703125 61.304688 C 92.796875 61.304688 91.105469 61.402344 90.230469 61.496094 L 90.230469 72.503906 L 93.515625 72.503906 L 93.515625 68.871094 L 93.875 68.871094 C 97.113281 68.871094 98.679688 67.296875 98.679688 65 C 98.679688 62.878906 97.253906 61.304688 93.703125 61.304688 Z M 93.9375 66.511719 L 93.515625 66.511719 L 93.515625 63.664062 L 94.097656 63.664062 C 94.832031 63.664062 95.394531 64.058594 95.394531 65.015625 C 95.394531 65.945312 94.847656 66.511719 93.9375 66.511719 Z M 105.332031 61.304688 C 101.792969 61.304688 99.664062 63.429688 99.664062 67 C 99.664062 70.570312 101.792969 72.691406 105.332031 72.691406 C 108.871094 72.691406 111 70.570312 111 67 C 111 63.429688 108.871094 61.304688 105.332031 61.304688 Z M 105.332031 69.925781 C 103.878906 69.925781 103 68.839844 103 67 C 103 65.15625 103.878906 64.074219 105.332031 64.074219 C 106.785156 64.074219 107.664062 65.15625 107.664062 67 C 107.664062 68.839844 106.789062 69.925781 105.332031 69.925781 Z M 115.175781 64.484375 C 115.175781 64.074219 115.613281 63.777344 116.460938 63.777344 C 117.242188 63.777344 118.070312 64.011719 118.980469 64.34375 L 119.589844 62.03125 C 119.058594 61.792969 117.902344 61.304688 116.519531 61.304688 C 114.113281 61.304688 112.105469 62.453125 112.105469 64.828125 C 112.105469 68.476562 116.851562 68.003906 116.851562 69.464844 C 116.851562 69.90625 116.398438 70.21875 115.503906 70.21875 C 114.738281 70.21875 113.816406 70 112.625 69.542969 L 111.859375 71.871094 C 112.875 72.386719 114.207031 72.6875 115.441406 72.6875 C 118.226562 72.6875 119.917969 71.308594 119.917969 69.089844 C 119.917969 65.363281 115.175781 65.867188 115.175781 64.484375 Z M 47.925781 54.355469 L 58.425781 48.195312 L 62.148438 46.015625 C 62.28125 45.9375 62.4375 45.941406 62.566406 46.019531 C 65.597656 47.847656 69.089844 48.835938 72.65625 48.835938 C 76.175781 48.835938 79.484375 47.890625 82.34375 46.246094 C 82.523438 46.140625 82.742188 46.140625 82.921875 46.246094 C 85.777344 47.890625 89.085938 48.835938 92.609375 48.835938 C 96.171875 48.835938 99.667969 47.847656 102.695312 46.019531 C 102.824219 45.9375 102.984375 45.9375 103.113281 46.015625 L 106.835938 48.195312 L 117.339844 54.355469 C 117.703125 54.566406 118.117188 54.15625 117.902344 53.789062 L 111.734375 43.257812 L 109.691406 39.765625 C 109.507812 39.453125 109.511719 39.070312 109.6875 38.753906 C 111.214844 36.015625 112.058594 32.96875 112.148438 29.78125 C 112.453125 19.1875 104.195312 10.144531 93.660156 9.585938 C 89.742188 9.378906 86.0625 10.335938 82.921875 12.144531 C 82.742188 12.25 82.519531 12.25 82.34375 12.144531 C 79.203125 10.335938 75.519531 9.378906 71.609375 9.585938 C 61.074219 10.140625 52.816406 19.183594 53.117188 29.777344 C 53.210938 32.96875 54.046875 36.015625 55.578125 38.753906 C 55.757812 39.070312 55.757812 39.453125 55.578125 39.765625 L 53.53125 43.257812 L 47.367188 53.789062 C 47.148438 54.15625 47.558594 54.570312 47.925781 54.355469 Z M 86.671875 14.375 C 88.929688 13.433594 91.449219 13 94.089844 13.214844 C 101.890625 13.84375 108.152344 20.207031 108.691406 28.054688 C 108.972656 32.09375 107.757812 35.839844 105.550781 38.796875 C 105.40625 38.988281 105.390625 39.246094 105.511719 39.453125 L 108.34375 44.292969 C 108.46875 44.503906 108.230469 44.746094 108.019531 44.617188 L 103.226562 41.808594 C 103.015625 41.6875 102.757812 41.707031 102.566406 41.859375 C 99.863281 43.96875 96.464844 45.230469 92.777344 45.230469 C 90.613281 45.230469 88.554688 44.800781 86.675781 44.019531 C 86.289062 43.859375 86.1875 43.359375 86.484375 43.058594 C 90.015625 39.503906 92.203125 34.601562 92.203125 29.195312 C 92.203125 23.789062 90.015625 18.886719 86.484375 15.332031 C 86.1875 15.039062 86.289062 14.535156 86.671875 14.375 Z M 82.246094 17.140625 C 82.464844 16.953125 82.796875 16.953125 83.011719 17.140625 C 86.34375 20.078125 88.449219 24.394531 88.449219 29.199219 C 88.449219 34.003906 86.347656 38.316406 83.011719 41.257812 C 82.792969 41.449219 82.460938 41.449219 82.246094 41.257812 C 78.914062 38.320312 76.808594 34.003906 76.808594 29.199219 C 76.808594 24.394531 78.914062 20.078125 82.246094 17.140625 Z M 56.566406 28.054688 C 57.113281 20.207031 63.371094 13.84375 71.175781 13.214844 C 73.816406 13 76.332031 13.4375 78.589844 14.375 C 78.972656 14.535156 79.070312 15.035156 78.777344 15.332031 C 75.246094 18.882812 73.058594 23.789062 73.058594 29.191406 C 73.058594 34.601562 75.246094 39.503906 78.777344 43.054688 C 79.070312 43.351562 78.972656 43.855469 78.589844 44.015625 C 76.710938 44.800781 74.652344 45.226562 72.488281 45.226562 C 68.796875 45.226562 65.402344 43.96875 62.699219 41.855469 C 62.507812 41.707031 62.246094 41.683594 62.039062 41.804688 L 57.246094 44.617188 C 57.035156 44.738281 56.796875 44.5 56.921875 44.289062 L 59.753906 39.449219 C 59.875 39.242188 59.855469 38.988281 59.714844 38.792969 C 57.503906 35.84375 56.289062 32.09375 56.566406 28.054688 Z M 56.566406 28.054688 " fill-opacity="1" fill-rule="nonzero"/></svg>